<?xml version="1.0" encoding="utf-8"?>
<!-- Generator: Adobe Illustrator 24.3.0, SVG Export Plug-In . SVG Version: 6.00 Build 0)  -->
<svg version="1.1" id="Layer_1" xmlns="http://www.w3.org/2000/svg" xmlns:xlink="http://www.w3.org/1999/xlink" x="0px" y="0px"
	 viewBox="0 0 105 88.5" style="enable-background:new 0 0 105 88.5;" xml:space="preserve">
<style type="text/css">
	.st0{opacity:0.4;fill:url(#SVGID_1_);}
	.st1{opacity:0.8;}
	.st2{fill:url(#SVGID_2_);}
	.st3{fill:url(#SVGID_3_);}
	.st4{fill:url(#SVGID_4_);}
	.st5{opacity:0.6;fill:url(#SVGID_5_);}
	.st6{fill:#2E5B9A;}
	.st7{fill:#F09959;}
	.st8{fill:url(#SVGID_6_);}
	.st9{fill:url(#SVGID_7_);}
	.st10{fill:url(#SVGID_8_);}
	.st11{fill:#E38540;}
	.st12{fill:url(#SVGID_9_);}
	.st13{fill:url(#SVGID_10_);}
	.st14{fill:#75A1DE;}
	.st15{fill:#F2E5DE;}
	.st16{fill:url(#SVGID_11_);}
	.st17{fill:url(#SVGID_12_);}
	.st18{fill:url(#SVGID_13_);}
	.st19{fill:url(#SVGID_14_);}
	.st20{fill:url(#SVGID_15_);}
	.st21{opacity:0.3;}
	.st22{fill:url(#XMLID_2_);}
	.st23{fill:url(#XMLID_3_);}
	.st24{fill:url(#XMLID_4_);}
	.st25{opacity:0.3;fill:url(#XMLID_5_);enable-background:new    ;}
	.st26{fill:url(#XMLID_10_);}
	.st27{fill:url(#XMLID_16_);}
	.st28{fill:url(#XMLID_17_);}
	.st29{opacity:0.3;fill:url(#XMLID_18_);enable-background:new    ;}
	.st30{fill:url(#XMLID_19_);}
	.st31{opacity:0.3;fill:url(#XMLID_21_);enable-background:new    ;}
	.st32{opacity:0.3;fill:url(#XMLID_22_);enable-background:new    ;}
	.st33{opacity:0.3;fill:url(#XMLID_24_);enable-background:new    ;}
	.st34{opacity:0.3;fill:url(#XMLID_25_);enable-background:new    ;}
	.st35{opacity:0.3;fill:url(#XMLID_27_);enable-background:new    ;}
	.st36{opacity:0.3;fill:url(#XMLID_28_);enable-background:new    ;}
	.st37{opacity:0.3;fill:url(#XMLID_30_);enable-background:new    ;}
	.st38{opacity:0.3;fill:url(#XMLID_31_);enable-background:new    ;}
	.st39{opacity:0.3;fill:url(#XMLID_32_);enable-background:new    ;}
	.st40{opacity:0.3;fill:url(#XMLID_33_);enable-background:new    ;}
	.st41{opacity:0.3;fill:url(#XMLID_34_);enable-background:new    ;}
	.st42{opacity:0.3;fill:url(#XMLID_35_);enable-background:new    ;}
	.st43{opacity:0.3;fill:url(#XMLID_36_);enable-background:new    ;}
	.st44{opacity:0.3;fill:url(#XMLID_37_);enable-background:new    ;}
	.st45{opacity:0.3;fill:url(#XMLID_38_);enable-background:new    ;}
	.st46{opacity:0.3;fill:url(#XMLID_39_);enable-background:new    ;}
	.st47{opacity:0.3;fill:url(#XMLID_41_);enable-background:new    ;}
	.st48{opacity:0.3;fill:url(#XMLID_42_);enable-background:new    ;}
	.st49{opacity:0.3;fill:url(#XMLID_43_);enable-background:new    ;}
	.st50{opacity:0.3;fill:url(#XMLID_44_);enable-background:new    ;}
	.st51{opacity:0.3;fill:url(#XMLID_46_);enable-background:new    ;}
	.st52{opacity:0.3;fill:url(#XMLID_48_);enable-background:new    ;}
	.st53{opacity:0.3;fill:url(#XMLID_49_);enable-background:new    ;}
	.st54{opacity:0.3;fill:url(#XMLID_50_);enable-background:new    ;}
	.st55{fill:url(#XMLID_51_);}
	.st56{fill:url(#XMLID_52_);}
	.st57{fill:#FFFFFF;}
	.st58{fill:url(#XMLID_53_);}
	.st59{fill:url(#XMLID_56_);}
	.st60{fill:url(#XMLID_57_);}
	.st61{fill:url(#SVGID_16_);}
	.st62{fill:url(#SVGID_17_);}
	.st63{fill:url(#SVGID_18_);}
	.st64{fill:url(#SVGID_19_);}
	.st65{fill:url(#SVGID_20_);}
	.st66{fill:url(#SVGID_21_);}
	.st67{fill:url(#SVGID_22_);}
	.st68{fill:url(#SVGID_23_);}
	.st69{fill:url(#SVGID_24_);}
	.st70{fill:url(#SVGID_25_);}
	.st71{fill:url(#SVGID_26_);}
	.st72{fill:url(#SVGID_27_);}
	.st73{fill:url(#SVGID_28_);}
	.st74{fill:url(#SVGID_29_);}
	.st75{fill:url(#SVGID_30_);}
	.st76{fill:url(#SVGID_31_);}
	.st77{fill:url(#SVGID_32_);}
	.st78{fill:url(#SVGID_33_);}
	.st79{fill:url(#SVGID_34_);}
	.st80{fill:url(#SVGID_35_);}
	.st81{fill:url(#SVGID_36_);}
	.st82{fill:url(#SVGID_37_);}
	.st83{fill:url(#SVGID_38_);}
	.st84{fill:url(#SVGID_39_);}
	.st85{fill:url(#SVGID_40_);}
</style>
<linearGradient id="SVGID_1_" gradientUnits="userSpaceOnUse" x1="-3.1768" y1="43.4982" x2="137.4167" y2="43.4982">
	<stop  offset="0" style="stop-color:#6A9BF4"/>
	<stop  offset="0.6793" style="stop-color:#766DF4"/>
	<stop  offset="1" style="stop-color:#766DF4"/>
</linearGradient>
<path class="st0" d="M17.3,6.3c14.2-8,28.7-0.9,38.5,14.4c9.8,15.4,30.4-10.6,41.3,4.7c7.4,10.5,4,37.4-6.2,49.1
	c-13.9,15.8-56,7.8-65.2,5.1c-10.5-3.1-18.2-12.5-21.3-24C-3.2,28.1,11,9.8,17.3,6.3z"/>
<g>
	<g class="st1">
		<linearGradient id="SVGID_2_" gradientUnits="userSpaceOnUse" x1="78.3957" y1="9.7568" x2="107.9939" y2="9.7568">
			<stop  offset="0" style="stop-color:#6A9BF4"/>
			<stop  offset="0.6793" style="stop-color:#766DF4"/>
			<stop  offset="1" style="stop-color:#766DF4"/>
		</linearGradient>
		<path class="st2" d="M99.9,12.9h-2.6c-1,0-1.8-0.8-1.8-1.8V8.4c0-1,0.8-1.8,1.8-1.8h2.6c1,0,1.8,0.8,1.8,1.8v2.6
			C101.7,12.1,100.9,12.9,99.9,12.9z M97.2,7.3c-0.6,0-1.1,0.5-1.1,1.1v2.6c0,0.6,0.5,1.1,1.1,1.1h2.6c0.6,0,1.1-0.5,1.1-1.1V8.4
			c0-0.6-0.5-1.1-1.1-1.1H97.2z"/>
	</g>
	<g class="st1">
		<linearGradient id="SVGID_3_" gradientUnits="userSpaceOnUse" x1="78.3957" y1="9.7568" x2="107.9939" y2="9.7568">
			<stop  offset="0" style="stop-color:#6A9BF4"/>
			<stop  offset="0.6793" style="stop-color:#766DF4"/>
			<stop  offset="1" style="stop-color:#766DF4"/>
		</linearGradient>
		<path class="st3" d="M87.5,12.9h-2.6c-1,0-1.8-0.8-1.8-1.8V8.4c0-1,0.8-1.8,1.8-1.8h2.6c1,0,1.8,0.8,1.8,1.8v2.6
			C89.3,12.1,88.5,12.9,87.5,12.9z M84.9,7.3c-0.6,0-1.1,0.5-1.1,1.1v2.6c0,0.6,0.5,1.1,1.1,1.1h2.6c0.6,0,1.1-0.5,1.1-1.1V8.4
			c0-0.6-0.5-1.1-1.1-1.1H84.9z"/>
	</g>
	<g>
		<linearGradient id="SVGID_4_" gradientUnits="userSpaceOnUse" x1="78.3957" y1="8.6083" x2="107.9939" y2="8.6083">
			<stop  offset="0" style="stop-color:#6A9BF4"/>
			<stop  offset="0.6793" style="stop-color:#766DF4"/>
			<stop  offset="1" style="stop-color:#766DF4"/>
		</linearGradient>
		<path class="st4" d="M86.3,11.4C86.3,11.4,86.3,11.4,86.3,11.4c-0.1,0-0.2,0-0.2-0.1l-1.9-2.5c-0.1-0.1-0.1-0.3,0.1-0.4
			c0.1-0.1,0.3-0.1,0.4,0.1l1.7,2.2l4.3-4.7c0.1-0.1,0.3-0.1,0.4,0c0.1,0.1,0.1,0.3,0,0.4l-4.6,4.9C86.5,11.3,86.4,11.4,86.3,11.4z"
			/>
	</g>
</g>
<linearGradient id="SVGID_5_" gradientUnits="userSpaceOnUse" x1="9.7372" y1="82.9182" x2="100.4731" y2="82.9182">
	<stop  offset="0" style="stop-color:#6A9BF4"/>
	<stop  offset="0.6793" style="stop-color:#766DF4"/>
	<stop  offset="1" style="stop-color:#766DF4"/>
</linearGradient>
<path class="st5" d="M97.2,80.8c-7.1-0.5-31.1,0.4-38.4,0.7s-15.8-0.5-20.2-1.6C34.1,78.7,8.6,80,9.8,83.2
	c1.2,3.2,11.4,1.4,22.9,2.7s37.6-0.2,43.5,0c5.9,0.2,11.3-0.3,18.8-1C102.6,84.3,101.3,81.1,97.2,80.8z"/>
<path class="st6" d="M77,56.2H37.6c-0.2,0-0.4-0.2-0.4-0.4v-0.6c0-0.2,0.2-0.4,0.4-0.4H77c0.2,0,0.4,0.2,0.4,0.4v0.6
	C77.5,56,77.3,56.2,77,56.2z"/>
<path class="st7" d="M87.2,34.5c0.5,1.9-0.8,3.8-2.2,4.2s-2.5-0.9-3-2.8c-0.5-1.9,0.2-3.7,1.6-4.1C85.1,31.5,86.7,32.7,87.2,34.5z"
	/>
<path class="st7" d="M79.1,71c0,0,3.7,5.7,4.2,6c0.5,0.2,1.7,0.3,1.3,1.2c-0.5,0.9-0.7,4.6-1.1,4.8c-0.4,0.2-4.2,0.6-3.6,0
	c0.6-0.6,0.9-0.3,1.2-1.4c0.3-1.1,0.7-3.2,0.2-3.7c-0.5-0.4-3.8-4.4-3.8-4.4L79.1,71z"/>
<path class="st7" d="M60.6,73.5c0,0-4.5,7.4-5.3,8c-0.8,0.7-3.6,1.7-1.3,1.8c2.2,0.2,3.3-0.7,4.7-1.2c1.4-0.4,3.2-0.7,2.5-1.7
	c-0.7-1.1-0.4-3.4,1-4.9C63.6,74.1,60.6,73.5,60.6,73.5z"/>
<linearGradient id="SVGID_6_" gradientUnits="userSpaceOnUse" x1="58.6883" y1="66.8079" x2="84.22" y2="66.8079">
	<stop  offset="0" style="stop-color:#6A9BF4"/>
	<stop  offset="0.6793" style="stop-color:#766DF4"/>
	<stop  offset="1" style="stop-color:#766DF4"/>
</linearGradient>
<path class="st8" d="M83.4,56.4c0,0-11.1-0.3-15.5,3.3c-2.6,3.9-8.8,15.4-9.3,16.7c0.3,0.3,2.2,0.9,3,0.8c2.4-2.9,5.7-5.4,7-7.7
	c1.6-2.8,2.1-4.2,4.6-4.5c2.6-0.2,8.4-1.1,10.1-1.1C85.2,63.9,83.4,56.4,83.4,56.4z"/>
<polygon class="st6" points="93.1,83.4 92.5,83.4 88.4,66 89.6,66 "/>
<polygon class="st6" points="75.7,83.4 76.3,83.4 81.1,65.4 79.8,65.4 "/>
<linearGradient id="SVGID_7_" gradientUnits="userSpaceOnUse" x1="67.9633" y1="65.9992" x2="91.0297" y2="65.9992">
	<stop  offset="0" style="stop-color:#6A9BF4"/>
	<stop  offset="0.6793" style="stop-color:#766DF4"/>
	<stop  offset="1" style="stop-color:#766DF4"/>
</linearGradient>
<path class="st9" d="M89.8,55.6l-6.4,1.1c0,0-8.6,0.1-12.5,0.8c-3.6,0.7-4.1,4.7,0,10.3c2.3,3.2,4.3,5.7,8.3,8.5
	c1-0.8,1.4-1,1.7-2.8c-0.3-0.4-1-2.9-1.3-3.4c-2.2-4.6-5.2-6.3-5.2-6.8c0.5-0.8,13.2,4.2,15.7,1.3C92.4,61.8,89.8,55.6,89.8,55.6z"
	/>
<linearGradient id="SVGID_8_" gradientUnits="userSpaceOnUse" x1="81.8028" y1="51.0597" x2="91.9408" y2="51.0597">
	<stop  offset="0" style="stop-color:#6A9BF4"/>
	<stop  offset="0.6793" style="stop-color:#766DF4"/>
	<stop  offset="1" style="stop-color:#766DF4"/>
</linearGradient>
<path class="st10" d="M90,41c-1.7-0.2-3.4,0.1-5,1.3c-1.4,1.4-3,3.8-2.9,7.7c0.1,5-0.8,5.3,0.2,6.7c3.9,1.6,10.5,8.5,9,1.1
	c-1.1-5.4,2.5-9.4-0.4-15.3C90.5,42,90.2,41.6,90,41z"/>
<path class="st7" d="M90,41c-1-2.5-1.3-5.3-1.3-5.3L86,36.6c0,0,1.6,3.5,0.1,4.7c-0.3,0.3-0.7,0.6-1.1,1C86.6,41.1,88.3,40.8,90,41z
	"/>
<path class="st11" d="M88.8,36.4c-0.2-0.1-0.4-0.3-0.6-0.5L86,36.6c0,0,0,0,0,0c0.1,0.1,0.6,1.4,0.7,2.7c0.7-0.4,1.4-1.1,2.2-2.2
	C88.9,36.9,88.8,36.6,88.8,36.4z"/>
<path class="st7" d="M88.1,41.8c-2.8,1-2.5,4-5.1,8.3c-1.3,2.3-2.6,2.2-2.6,2.2s-3.1,0-7-0.4c-2.4-0.3-2.5,0.4-0.9,1
	c3.3,1.2,6.8,2.5,9.6,2.2c2.8-0.3,7.6-7.5,7.8-9.3C90.4,43.2,89.5,41.3,88.1,41.8z"/>
<g>
	<path class="st6" d="M86.7,66.7c-0.2,0-0.4,0-0.5,0c-2.3-0.1-3.9-0.4-5.1-0.6c-1.5-0.3-2.3-0.5-3.2,0c-0.4,0.2-0.8,0-1-0.3
		c-0.2-0.4,0-0.8,0.3-1c1.4-0.7,2.5-0.4,4.1-0.1c1.2,0.2,2.7,0.5,4.9,0.6c2.4,0.1,3.9-0.3,4.7-1.1c0.7-0.7,0.9-2,0.6-3.9
		c-0.1-0.7-0.2-1.2-0.2-1.7c-0.2-1.4-0.4-2.3-0.2-3.7c0.2-1.3,0.6-3,1.6-6.4c0.1-0.4,0.5-0.6,0.9-0.5c0.4,0.1,0.6,0.5,0.5,0.9
		c-1.9,6.3-1.8,6.9-1.4,9.4c0.1,0.5,0.2,1.1,0.3,1.7c0.3,2.4,0,4-1,5.1C90.9,66.2,89.3,66.7,86.7,66.7z"/>
</g>
<linearGradient id="SVGID_9_" gradientUnits="userSpaceOnUse" x1="53.0961" y1="81.5562" x2="61.3169" y2="81.5562">
	<stop  offset="0" style="stop-color:#6A9BF4"/>
	<stop  offset="0.6793" style="stop-color:#766DF4"/>
	<stop  offset="1" style="stop-color:#766DF4"/>
</linearGradient>
<path class="st12" d="M60.9,79.7c-3,1.5-4.6,2.3-5.5,2.2c-0.2,0-0.4,0-0.6-0.1c-1.1,0.6-2.8,1.4-0.8,1.5c2.2,0.2,3.3-0.7,4.7-1.2
	c1.4-0.4,3.2-0.7,2.5-1.7C61,80.3,61,80,60.9,79.7z"/>
<linearGradient id="SVGID_10_" gradientUnits="userSpaceOnUse" x1="79.8361" y1="80.2521" x2="84.6905" y2="80.2521">
	<stop  offset="0" style="stop-color:#6A9BF4"/>
	<stop  offset="0.6793" style="stop-color:#766DF4"/>
	<stop  offset="1" style="stop-color:#766DF4"/>
</linearGradient>
<path class="st13" d="M83.6,77.1c-0.1,2.4-0.4,4.7-1.8,5.1c-0.4,0.1-0.7,0.1-1,0.1c-0.2,0.3-0.5,0.3-0.9,0.7c-0.6,0.6,3.2,0.2,3.6,0
	c0.4-0.2,0.6-3.9,1.1-4.8C85,77.5,84.2,77.3,83.6,77.1z"/>
<g>
	<path class="st14" d="M72.2,54.9h-9.4c-0.3,0-0.5-0.2-0.7-0.4l-3.8-8.2c-0.2-0.4,0-0.8,0.4-1c0.4-0.2,0.8,0,1,0.4l3.6,7.8h9
		c0.4,0,0.7,0.3,0.7,0.7C72.9,54.6,72.6,54.9,72.2,54.9z"/>
</g>
<path class="st7" d="M74.2,52c-1.9,0-3.8-1.2-4.7-1c-0.9,0.2-4,2.3-3.6,2.4c0.4,0.1,2.8-1.2,2.9-1.2c0.1,0,0.6,0.9,1.9,1.2
	c1.3,0.3,0-1,4,0.2C77.3,54.4,74.2,52,74.2,52z"/>
<path class="st15" d="M89.7,38.8L90,41c0,0-2.5,0.1-3.7,0.8c-1.2,0.7-3,2.7-3,2.7l1.5-2.5l0.2-1.6L89.7,38.8z"/>
<path class="st15" d="M88.7,41.5c-1.8-0.3-2.7,1.3-3.9,4c-1.2,2.7-3.2,5.9-3.6,6.4c-0.4,0.4-6.8,0-6.8,0s-0.2,1.9,0,2.1
	s1.3,0.2,1.3,0.2s0.4,0.4,0.9,0.6c0.4,0.3,3.9,0.8,5.6,0.7c1.6-0.1,3.1-0.2,3.3-0.5s4.7-7.1,4.9-9.6C90.7,43,89.6,41.7,88.7,41.5z"
	/>
<linearGradient id="SVGID_11_" gradientUnits="userSpaceOnUse" x1="80.334" y1="33.6383" x2="90.7453" y2="33.6383">
	<stop  offset="0" style="stop-color:#6A9BF4"/>
	<stop  offset="0.6793" style="stop-color:#766DF4"/>
	<stop  offset="1" style="stop-color:#766DF4"/>
</linearGradient>
<path class="st16" d="M83.3,30.3c-3.5,0.2-2.9,5.4-2.9,5.4s0.9,0.3,2.8,0c-0.1-0.6-0.1-2-0.1-2s0.2,1.2,0.5,1.9
	c0.4,0.2,0.8,0,1.6-0.2c0.4,1.7,1.5,2.4,2.3,2.6c0.8,0.3,1.7,0.6,2.7,0.1c1-0.5,0.4-5.6-0.1-6.6c-0.8-1.5-2.1-2.9-4.4-2.2
	C84.6,29.6,83.3,30.3,83.3,30.3z"/>
<linearGradient id="SVGID_12_" gradientUnits="userSpaceOnUse" x1="89.319" y1="45.629" x2="104.6578" y2="45.629">
	<stop  offset="0" style="stop-color:#6A9BF4"/>
	<stop  offset="0.6793" style="stop-color:#766DF4"/>
	<stop  offset="1" style="stop-color:#766DF4"/>
</linearGradient>
<path class="st17" d="M89.3,36.5l1.4,2.1c0,0-1.6,3.9,3,5.7c3.6,1.4,3.2,3.8,1.5,6.3c-1.6,2.5,1,4.6,1,4.6s0.4-2.7,3.9-3.3
	c4.7-0.7,6.1-7.1,2.5-10.2c-2.9-2.6-3.8-0.5-5.8-2.8c-2-2.4-5.7-0.8-5.7-0.8l-1.4-2L89.3,36.5z"/>
<polygon class="st6" points="41.4,83.4 42.3,83.4 46,55.7 43.9,55.7 "/>
<polygon class="st6" points="73,83.4 72.1,83.4 68.5,55.7 70.5,55.7 "/>
<g>
	<linearGradient id="SVGID_13_" gradientUnits="userSpaceOnUse" x1="15.4251" y1="75.9786" x2="31.3142" y2="75.9786">
		<stop  offset="0" style="stop-color:#6A9BF4"/>
		<stop  offset="0.6793" style="stop-color:#766DF4"/>
		<stop  offset="1" style="stop-color:#766DF4"/>
	</linearGradient>
	<path class="st18" d="M27.3,77.3h1.5c0.3,0,0.6-0.3,0.6-0.6v-1.3c0-0.3-0.2-0.6-0.6-0.6h-1.5c-0.3,0-0.6,0.3-0.6,0.6v1.3
		C26.7,77,27,77.3,27.3,77.3z"/>
	<linearGradient id="SVGID_14_" gradientUnits="userSpaceOnUse" x1="15.4251" y1="75.9786" x2="31.3142" y2="75.9786">
		<stop  offset="0" style="stop-color:#6A9BF4"/>
		<stop  offset="0.6793" style="stop-color:#766DF4"/>
		<stop  offset="1" style="stop-color:#766DF4"/>
	</linearGradient>
	<path class="st19" d="M22.6,77.3h1.5c0.3,0,0.6-0.3,0.6-0.6v-1.3c0-0.3-0.2-0.6-0.6-0.6h-1.5c-0.3,0-0.6,0.3-0.6,0.6v1.3
		C22,77,22.3,77.3,22.6,77.3z"/>
	<linearGradient id="SVGID_15_" gradientUnits="userSpaceOnUse" x1="15.4251" y1="75.9786" x2="31.3142" y2="75.9786">
		<stop  offset="0" style="stop-color:#6A9BF4"/>
		<stop  offset="0.6793" style="stop-color:#766DF4"/>
		<stop  offset="1" style="stop-color:#766DF4"/>
	</linearGradient>
	<path class="st20" d="M17.9,77.3h1.5c0.3,0,0.6-0.3,0.6-0.6v-1.3c0-0.3-0.2-0.6-0.6-0.6h-1.5c-0.3,0-0.6,0.3-0.6,0.6v1.3
		C17.3,77,17.6,77.3,17.9,77.3z"/>
</g>
<g>
	<g id="XMLID_308_" class="st21">
	</g>
	<g id="XMLID_6_">
		<g id="XMLID_7_">
			<linearGradient id="XMLID_2_" gradientUnits="userSpaceOnUse" x1="43.6997" y1="28.6812" x2="73.7842" y2="28.6812">
				<stop  offset="0" style="stop-color:#6A9BF4"/>
				<stop  offset="0.6793" style="stop-color:#766DF4"/>
				<stop  offset="1" style="stop-color:#766DF4"/>
			</linearGradient>
			<polygon id="XMLID_80_" class="st22" points="56,37.8 53.2,34.4 49.7,37.1 51.9,19.5 58.1,20.3 			"/>
			<linearGradient id="XMLID_3_" gradientUnits="userSpaceOnUse" x1="43.6997" y1="28.0718" x2="73.7842" y2="28.0718">
				<stop  offset="0" style="stop-color:#6A9BF4"/>
				<stop  offset="0.6793" style="stop-color:#766DF4"/>
				<stop  offset="1" style="stop-color:#766DF4"/>
			</linearGradient>
			<line id="XMLID_8_" class="st23" x1="52.5" y1="19.6" x2="50.5" y2="36.5"/>
			<linearGradient id="XMLID_4_" gradientUnits="userSpaceOnUse" x1="43.6997" y1="28.6744" x2="73.7842" y2="28.6744">
				<stop  offset="0" style="stop-color:#6A9BF4"/>
				<stop  offset="0.6793" style="stop-color:#766DF4"/>
				<stop  offset="1" style="stop-color:#766DF4"/>
			</linearGradient>
			<line id="XMLID_9_" class="st24" x1="57.5" y1="20.2" x2="55.4" y2="37.1"/>
		</g>
		<linearGradient id="XMLID_5_" gradientUnits="userSpaceOnUse" x1="43.6997" y1="24.5122" x2="73.7842" y2="24.5122">
			<stop  offset="0" style="stop-color:#6A9BF4"/>
			<stop  offset="0.6793" style="stop-color:#766DF4"/>
			<stop  offset="1" style="stop-color:#766DF4"/>
		</linearGradient>
		<polyline id="XMLID_84_" class="st25" points="57.3,26.8 57.9,22.5 51.6,21.5 51.1,25.8 51.6,25.8 52.4,27.2 54,26.5 55.3,27.6 
			56.7,26.5 		"/>
	</g>
	<g id="XMLID_11_">
		<g id="XMLID_12_">
			<linearGradient id="XMLID_10_" gradientUnits="userSpaceOnUse" x1="43.6997" y1="26.554" x2="73.7842" y2="26.554">
				<stop  offset="0" style="stop-color:#6A9BF4"/>
				<stop  offset="0.6793" style="stop-color:#766DF4"/>
				<stop  offset="1" style="stop-color:#766DF4"/>
			</linearGradient>
			<polygon id="XMLID_13_" class="st26" points="64.9,35.6 65.7,31.3 70,31.9 59.8,17.5 54.6,21.2 			"/>
			<linearGradient id="XMLID_16_" gradientUnits="userSpaceOnUse" x1="43.6997" y1="24.8698" x2="73.7842" y2="24.8698">
				<stop  offset="0" style="stop-color:#6A9BF4"/>
				<stop  offset="0.6793" style="stop-color:#766DF4"/>
				<stop  offset="1" style="stop-color:#766DF4"/>
			</linearGradient>
			<line id="XMLID_14_" class="st27" x1="59.2" y1="17.9" x2="69.1" y2="31.8"/>
			<linearGradient id="XMLID_17_" gradientUnits="userSpaceOnUse" x1="43.6997" y1="27.7502" x2="73.7842" y2="27.7502">
				<stop  offset="0" style="stop-color:#6A9BF4"/>
				<stop  offset="0.6793" style="stop-color:#766DF4"/>
				<stop  offset="1" style="stop-color:#766DF4"/>
			</linearGradient>
			<line id="XMLID_15_" class="st28" x1="55.1" y1="20.8" x2="65" y2="34.7"/>
		</g>
		<linearGradient id="XMLID_18_" gradientUnits="userSpaceOnUse" x1="43.6997" y1="22.9225" x2="73.7842" y2="22.9225">
			<stop  offset="0" style="stop-color:#6A9BF4"/>
			<stop  offset="0.6793" style="stop-color:#766DF4"/>
			<stop  offset="1" style="stop-color:#766DF4"/>
		</linearGradient>
		<polyline id="XMLID_40_" class="st29" points="58.9,26 58.6,26.7 55.9,23.1 60.9,19.1 63.6,22.9 63.1,22.9 62.9,24.5 61.3,24.5 
			60.6,26.1 		"/>
	</g>
	<linearGradient id="XMLID_19_" gradientUnits="userSpaceOnUse" x1="43.6997" y1="16.5139" x2="73.7842" y2="16.5139">
		<stop  offset="0" style="stop-color:#6A9BF4"/>
		<stop  offset="0.6793" style="stop-color:#766DF4"/>
		<stop  offset="1" style="stop-color:#766DF4"/>
	</linearGradient>
	<polygon id="XMLID_47_" class="st30" points="65.8,13.9 65.1,15.4 66.1,16.7 65.1,17.9 65.7,19.4 64.4,20.4 64.6,22 63.1,22.5 
		62.9,24.2 61.3,24.3 60.7,25.8 59,25.6 58.1,26.9 56.6,26.2 55.3,27.2 54,26.1 52.5,26.8 51.6,25.5 50,25.7 49.4,24.2 47.8,24 
		47.6,22.3 46.1,21.7 46.4,20.1 45.1,19.1 45.8,17.7 44.7,16.4 45.8,15.1 45.1,13.6 46.5,12.7 46.2,11 47.8,10.5 48,8.9 49.6,8.7 
		50.2,7.2 51.8,7.5 52.8,6.2 54.3,6.8 55.6,5.8 56.8,6.9 58.3,6.2 59.3,7.6 60.9,7.3 61.5,8.9 63.1,9.1 63.2,10.7 64.8,11.3 
		64.5,12.9 	"/>
	<g id="XMLID_55_">
		<g>
			<linearGradient id="XMLID_21_" gradientUnits="userSpaceOnUse" x1="43.6997" y1="11.1172" x2="73.7842" y2="11.1172">
				<stop  offset="0" style="stop-color:#6A9BF4"/>
				<stop  offset="0.6793" style="stop-color:#766DF4"/>
				<stop  offset="1" style="stop-color:#766DF4"/>
			</linearGradient>
			<polygon id="XMLID_240_" class="st31" points="55.4,16.3 52.8,5.9 54.5,6.6 			"/>
			<linearGradient id="XMLID_22_" gradientUnits="userSpaceOnUse" x1="43.6997" y1="11.6344" x2="73.7842" y2="11.6344">
				<stop  offset="0" style="stop-color:#6A9BF4"/>
				<stop  offset="0.6793" style="stop-color:#766DF4"/>
				<stop  offset="1" style="stop-color:#766DF4"/>
			</linearGradient>
			<polygon id="XMLID_239_" class="st32" points="55.4,16.3 50.2,7 52,7.2 			"/>
			<linearGradient id="XMLID_24_" gradientUnits="userSpaceOnUse" x1="43.6997" y1="12.354" x2="73.7842" y2="12.354">
				<stop  offset="0" style="stop-color:#6A9BF4"/>
				<stop  offset="0.6793" style="stop-color:#766DF4"/>
				<stop  offset="1" style="stop-color:#766DF4"/>
			</linearGradient>
			<polygon id="XMLID_238_" class="st33" points="55.4,16.3 48,8.6 49.7,8.4 			"/>
			<linearGradient id="XMLID_25_" gradientUnits="userSpaceOnUse" x1="43.6997" y1="13.2264" x2="73.7842" y2="13.2264">
				<stop  offset="0" style="stop-color:#6A9BF4"/>
				<stop  offset="0.6793" style="stop-color:#766DF4"/>
				<stop  offset="1" style="stop-color:#766DF4"/>
			</linearGradient>
			<polygon id="XMLID_237_" class="st34" points="55.4,16.3 46.2,10.8 47.9,10.2 			"/>
			<linearGradient id="XMLID_27_" gradientUnits="userSpaceOnUse" x1="43.6997" y1="14.3058" x2="73.7842" y2="14.3058">
				<stop  offset="0" style="stop-color:#6A9BF4"/>
				<stop  offset="0.6793" style="stop-color:#766DF4"/>
				<stop  offset="1" style="stop-color:#766DF4"/>
			</linearGradient>
			<polygon id="XMLID_236_" class="st35" points="55.4,16.3 45.1,13.4 46.6,12.3 			"/>
			<linearGradient id="XMLID_28_" gradientUnits="userSpaceOnUse" x1="43.6997" y1="15.5223" x2="73.7842" y2="15.5223">
				<stop  offset="0" style="stop-color:#6A9BF4"/>
				<stop  offset="0.6793" style="stop-color:#766DF4"/>
				<stop  offset="1" style="stop-color:#766DF4"/>
			</linearGradient>
			<polygon id="XMLID_235_" class="st36" points="55.4,16.3 44.7,16.2 45.8,14.7 			"/>
			<linearGradient id="XMLID_30_" gradientUnits="userSpaceOnUse" x1="43.6997" y1="17.6112" x2="73.7842" y2="17.6112">
				<stop  offset="0" style="stop-color:#6A9BF4"/>
				<stop  offset="0.6793" style="stop-color:#766DF4"/>
				<stop  offset="1" style="stop-color:#766DF4"/>
			</linearGradient>
			<polygon id="XMLID_234_" class="st37" points="55.4,16.3 45.1,18.9 45.8,17.3 			"/>
			<linearGradient id="XMLID_31_" gradientUnits="userSpaceOnUse" x1="43.6997" y1="18.9087" x2="73.7842" y2="18.9087">
				<stop  offset="0" style="stop-color:#6A9BF4"/>
				<stop  offset="0.6793" style="stop-color:#766DF4"/>
				<stop  offset="1" style="stop-color:#766DF4"/>
			</linearGradient>
			<polygon id="XMLID_233_" class="st38" points="55.4,16.3 46.1,21.5 46.3,19.8 			"/>
			<linearGradient id="XMLID_32_" gradientUnits="userSpaceOnUse" x1="43.6997" y1="20.0262" x2="73.7842" y2="20.0262">
				<stop  offset="0" style="stop-color:#6A9BF4"/>
				<stop  offset="0.6793" style="stop-color:#766DF4"/>
				<stop  offset="1" style="stop-color:#766DF4"/>
			</linearGradient>
			<polygon id="XMLID_232_" class="st39" points="55.4,16.3 47.8,23.8 47.5,22 			"/>
			<linearGradient id="XMLID_33_" gradientUnits="userSpaceOnUse" x1="43.6997" y1="20.8897" x2="73.7842" y2="20.8897">
				<stop  offset="0" style="stop-color:#6A9BF4"/>
				<stop  offset="0.6793" style="stop-color:#766DF4"/>
				<stop  offset="1" style="stop-color:#766DF4"/>
			</linearGradient>
			<polygon id="XMLID_231_" class="st40" points="55.4,16.3 50,25.5 49.3,23.8 			"/>
			<linearGradient id="XMLID_34_" gradientUnits="userSpaceOnUse" x1="43.6997" y1="21.4429" x2="73.7842" y2="21.4429">
				<stop  offset="0" style="stop-color:#6A9BF4"/>
				<stop  offset="0.6793" style="stop-color:#766DF4"/>
				<stop  offset="1" style="stop-color:#766DF4"/>
			</linearGradient>
			<polygon id="XMLID_230_" class="st41" points="55.4,16.3 52.5,26.6 51.4,25.2 			"/>
			<linearGradient id="XMLID_35_" gradientUnits="userSpaceOnUse" x1="43.6997" y1="21.643" x2="73.7842" y2="21.643">
				<stop  offset="0" style="stop-color:#6A9BF4"/>
				<stop  offset="0.6793" style="stop-color:#766DF4"/>
				<stop  offset="1" style="stop-color:#766DF4"/>
			</linearGradient>
			<polygon id="XMLID_229_" class="st42" points="55.4,16.3 55.3,27 53.9,25.9 			"/>
			<linearGradient id="XMLID_36_" gradientUnits="userSpaceOnUse" x1="43.6997" y1="21.4788" x2="73.7842" y2="21.4788">
				<stop  offset="0" style="stop-color:#6A9BF4"/>
				<stop  offset="0.6793" style="stop-color:#766DF4"/>
				<stop  offset="1" style="stop-color:#766DF4"/>
			</linearGradient>
			<polygon id="XMLID_228_" class="st43" points="55.4,16.3 58.1,26.7 56.4,26 			"/>
			<linearGradient id="XMLID_37_" gradientUnits="userSpaceOnUse" x1="43.6997" y1="20.9639" x2="73.7842" y2="20.9639">
				<stop  offset="0" style="stop-color:#6A9BF4"/>
				<stop  offset="0.6793" style="stop-color:#766DF4"/>
				<stop  offset="1" style="stop-color:#766DF4"/>
			</linearGradient>
			<polygon id="XMLID_227_" class="st44" points="55.4,16.3 60.6,25.6 58.9,25.4 			"/>
			<linearGradient id="XMLID_38_" gradientUnits="userSpaceOnUse" x1="43.6997" y1="20.2421" x2="73.7842" y2="20.2421">
				<stop  offset="0" style="stop-color:#6A9BF4"/>
				<stop  offset="0.6793" style="stop-color:#766DF4"/>
				<stop  offset="1" style="stop-color:#766DF4"/>
			</linearGradient>
			<polygon id="XMLID_226_" class="st45" points="55.4,16.3 62.9,24 61.1,24.2 			"/>
			<linearGradient id="XMLID_39_" gradientUnits="userSpaceOnUse" x1="43.6997" y1="19.3719" x2="73.7842" y2="19.3719">
				<stop  offset="0" style="stop-color:#6A9BF4"/>
				<stop  offset="0.6793" style="stop-color:#766DF4"/>
				<stop  offset="1" style="stop-color:#766DF4"/>
			</linearGradient>
			<polygon id="XMLID_225_" class="st46" points="55.4,16.3 64.6,21.8 63,22.4 			"/>
			<linearGradient id="XMLID_41_" gradientUnits="userSpaceOnUse" x1="43.6997" y1="18.2926" x2="73.7842" y2="18.2926">
				<stop  offset="0" style="stop-color:#6A9BF4"/>
				<stop  offset="0.6793" style="stop-color:#766DF4"/>
				<stop  offset="1" style="stop-color:#766DF4"/>
			</linearGradient>
			<polygon id="XMLID_224_" class="st47" points="55.4,16.3 65.7,19.2 64.3,20.3 			"/>
			<linearGradient id="XMLID_42_" gradientUnits="userSpaceOnUse" x1="43.6997" y1="17.0761" x2="73.7842" y2="17.0761">
				<stop  offset="0" style="stop-color:#6A9BF4"/>
				<stop  offset="0.6793" style="stop-color:#766DF4"/>
				<stop  offset="1" style="stop-color:#766DF4"/>
			</linearGradient>
			<polygon id="XMLID_223_" class="st48" points="55.4,16.3 66.1,16.4 65,17.9 			"/>
			<linearGradient id="XMLID_43_" gradientUnits="userSpaceOnUse" x1="43.6997" y1="14.9871" x2="73.7842" y2="14.9871">
				<stop  offset="0" style="stop-color:#6A9BF4"/>
				<stop  offset="0.6793" style="stop-color:#766DF4"/>
				<stop  offset="1" style="stop-color:#766DF4"/>
			</linearGradient>
			<polygon id="XMLID_222_" class="st49" points="55.4,16.3 65.8,13.7 65.1,15.3 			"/>
			<linearGradient id="XMLID_44_" gradientUnits="userSpaceOnUse" x1="43.6997" y1="13.6896" x2="73.7842" y2="13.6896">
				<stop  offset="0" style="stop-color:#6A9BF4"/>
				<stop  offset="0.6793" style="stop-color:#766DF4"/>
				<stop  offset="1" style="stop-color:#766DF4"/>
			</linearGradient>
			<polygon id="XMLID_221_" class="st50" points="55.4,16.3 64.8,11.1 64.5,12.8 			"/>
			<linearGradient id="XMLID_46_" gradientUnits="userSpaceOnUse" x1="43.6997" y1="12.5721" x2="73.7842" y2="12.5721">
				<stop  offset="0" style="stop-color:#6A9BF4"/>
				<stop  offset="0.6793" style="stop-color:#766DF4"/>
				<stop  offset="1" style="stop-color:#766DF4"/>
			</linearGradient>
			<polygon id="XMLID_220_" class="st51" points="55.4,16.3 63.1,8.8 63.3,10.6 			"/>
			<linearGradient id="XMLID_48_" gradientUnits="userSpaceOnUse" x1="43.6997" y1="11.7064" x2="73.7842" y2="11.7064">
				<stop  offset="0" style="stop-color:#6A9BF4"/>
				<stop  offset="0.6793" style="stop-color:#766DF4"/>
				<stop  offset="1" style="stop-color:#766DF4"/>
			</linearGradient>
			<polygon id="XMLID_219_" class="st52" points="55.4,16.3 60.9,7.1 61.6,8.8 			"/>
			<linearGradient id="XMLID_49_" gradientUnits="userSpaceOnUse" x1="43.6997" y1="11.1554" x2="73.7842" y2="11.1554">
				<stop  offset="0" style="stop-color:#6A9BF4"/>
				<stop  offset="0.6793" style="stop-color:#766DF4"/>
				<stop  offset="1" style="stop-color:#766DF4"/>
			</linearGradient>
			<polygon id="XMLID_218_" class="st53" points="55.4,16.3 58.3,6 59.4,7.4 			"/>
			<linearGradient id="XMLID_50_" gradientUnits="userSpaceOnUse" x1="43.6997" y1="10.9553" x2="73.7842" y2="10.9553">
				<stop  offset="0" style="stop-color:#6A9BF4"/>
				<stop  offset="0.6793" style="stop-color:#766DF4"/>
				<stop  offset="1" style="stop-color:#766DF4"/>
			</linearGradient>
			<polygon id="XMLID_217_" class="st54" points="55.4,16.3 55.6,5.6 57,6.7 			"/>
		</g>
	</g>
	<linearGradient id="XMLID_51_" gradientUnits="userSpaceOnUse" x1="43.6997" y1="16.5139" x2="73.7842" y2="16.5139">
		<stop  offset="0" style="stop-color:#6A9BF4"/>
		<stop  offset="0.6793" style="stop-color:#766DF4"/>
		<stop  offset="1" style="stop-color:#766DF4"/>
	</linearGradient>
	<path id="XMLID_45_" class="st55" d="M63.4,14.5c1.1,4.4-1.6,8.9-6,10c-4.4,1.1-8.9-1.6-10-6c-1.1-4.4,1.6-8.9,6-10
		C57.8,7.4,62.3,10.1,63.4,14.5z"/>
	<linearGradient id="XMLID_52_" gradientUnits="userSpaceOnUse" x1="43.6997" y1="16.5139" x2="73.7842" y2="16.5139">
		<stop  offset="0" style="stop-color:#6A9BF4"/>
		<stop  offset="0.6793" style="stop-color:#766DF4"/>
		<stop  offset="1" style="stop-color:#766DF4"/>
	</linearGradient>
	<path id="XMLID_79_" class="st56" d="M62.6,14.7c1,3.9-1.4,7.9-5.3,8.9c-3.9,1-7.9-1.4-8.9-5.3c-1-3.9,1.4-7.9,5.3-8.9
		S61.6,10.8,62.6,14.7z"/>
	<path id="XMLID_54_" class="st57" d="M63,14.6c1.1,4.2-1.5,8.4-5.7,9.5s-8.4-1.5-9.5-5.7s1.5-8.4,5.7-9.5
		C57.7,7.9,61.9,10.4,63,14.6z"/>
	<g id="XMLID_20_">
		<linearGradient id="XMLID_53_" gradientUnits="userSpaceOnUse" x1="43.6997" y1="20.467" x2="73.7842" y2="20.467">
			<stop  offset="0" style="stop-color:#6A9BF4"/>
			<stop  offset="0.6793" style="stop-color:#766DF4"/>
			<stop  offset="1" style="stop-color:#766DF4"/>
		</linearGradient>
		<polygon id="XMLID_23_" class="st58" points="55.9,19.1 56.5,20 57.5,19.7 56.8,20.5 57.4,21.4 56.4,21 55.8,21.8 55.8,20.8 
			54.9,20.4 55.9,20.2 		"/>
		<linearGradient id="XMLID_56_" gradientUnits="userSpaceOnUse" x1="43.6997" y1="21.2877" x2="73.7842" y2="21.2877">
			<stop  offset="0" style="stop-color:#6A9BF4"/>
			<stop  offset="0.6793" style="stop-color:#766DF4"/>
			<stop  offset="1" style="stop-color:#766DF4"/>
		</linearGradient>
		<polygon id="XMLID_26_" class="st59" points="52.5,20.5 52.9,21 53.5,20.8 53.1,21.3 53.4,21.9 52.9,21.6 52.4,22.1 52.5,21.5 
			51.9,21.2 52.5,21.1 		"/>
		<linearGradient id="XMLID_57_" gradientUnits="userSpaceOnUse" x1="43.6997" y1="19.3899" x2="73.7842" y2="19.3899">
			<stop  offset="0" style="stop-color:#6A9BF4"/>
			<stop  offset="0.6793" style="stop-color:#766DF4"/>
			<stop  offset="1" style="stop-color:#766DF4"/>
		</linearGradient>
		<polygon id="XMLID_29_" class="st60" points="59.5,18.6 59.8,19.1 60.4,18.9 60,19.4 60.4,20 59.8,19.7 59.3,20.2 59.4,19.6 
			58.8,19.3 59.4,19.2 		"/>
	</g>
</g>
<g>
	<linearGradient id="SVGID_16_" gradientUnits="userSpaceOnUse" x1="3.2826" y1="32.6073" x2="42.9615" y2="32.6073">
		<stop  offset="0" style="stop-color:#6A9BF4"/>
		<stop  offset="0.6793" style="stop-color:#766DF4"/>
		<stop  offset="1" style="stop-color:#766DF4"/>
	</linearGradient>
	<rect x="9.8" y="7.4" class="st61" width="30.7" height="50.4"/>
	<rect x="11.4" y="8.5" class="st57" width="28.1" height="47.4"/>
	<g>
		<g>
			<linearGradient id="SVGID_17_" gradientUnits="userSpaceOnUse" x1="3.2826" y1="15.5396" x2="42.9615" y2="15.5396">
				<stop  offset="0" style="stop-color:#6A9BF4"/>
				<stop  offset="0.6793" style="stop-color:#766DF4"/>
				<stop  offset="1" style="stop-color:#766DF4"/>
			</linearGradient>
			<path class="st62" d="M22.8,18.4c0-0.1-0.5-2.9-0.6-4s1.8-1.3,1.8-1.3s1.5-0.8,2.6-0.4c1.1,0.4,1.8,1.1,2.3,2
				c0.5,0.9-0.4,3.6-0.4,3.6L22.8,18.4z"/>
			<linearGradient id="SVGID_18_" gradientUnits="userSpaceOnUse" x1="3.2826" y1="25.4483" x2="42.9615" y2="25.4483">
				<stop  offset="0" style="stop-color:#6A9BF4"/>
				<stop  offset="0.6793" style="stop-color:#766DF4"/>
				<stop  offset="1" style="stop-color:#766DF4"/>
			</linearGradient>
			<path class="st63" d="M19.4,27.5c0,0,0.1-1.2,0.1-1.2c0.2-2.3,3.1-3,6-3c3.4,0,5.7,0.6,6,3c0,0.1,0.2,1.2,0.2,1.3
				C25.6,27.7,19.4,27.5,19.4,27.5z"/>
			<linearGradient id="SVGID_19_" gradientUnits="userSpaceOnUse" x1="3.2826" y1="21.5966" x2="42.9615" y2="21.5966">
				<stop  offset="0" style="stop-color:#6A9BF4"/>
				<stop  offset="0.6793" style="stop-color:#766DF4"/>
				<stop  offset="1" style="stop-color:#766DF4"/>
			</linearGradient>
			<path class="st64" d="M26.2,25.1c-0.3,0.5-0.6,0.5-0.9,0c-0.3-0.4-1.3-1.3-1.3-1.8l0.4-4.7c0-0.5,0.4-0.9,0.9-0.9h0.9
				c0.5,0,0.9,0.4,0.9,0.9l0.2,4.7C27.2,23.8,26.5,24.7,26.2,25.1z"/>
			<linearGradient id="SVGID_20_" gradientUnits="userSpaceOnUse" x1="3.2826" y1="20.2771" x2="42.9615" y2="20.2771">
				<stop  offset="0" style="stop-color:#6A9BF4"/>
				<stop  offset="0.6793" style="stop-color:#766DF4"/>
				<stop  offset="1" style="stop-color:#766DF4"/>
			</linearGradient>
			<path class="st65" d="M26.2,17.7h-0.9c-0.5,0-0.9,0.4-0.9,0.9L24,22.8c1.1,0.3,2.5-0.4,3.1-1.1L27,18.6
				C27,18.1,26.6,17.7,26.2,17.7z"/>
			<linearGradient id="SVGID_21_" gradientUnits="userSpaceOnUse" x1="3.2826" y1="25.6044" x2="42.9615" y2="25.6044">
				<stop  offset="0" style="stop-color:#6A9BF4"/>
				<stop  offset="0.6793" style="stop-color:#766DF4"/>
				<stop  offset="1" style="stop-color:#766DF4"/>
			</linearGradient>
			<path class="st66" d="M22.4,23.6l1.5,2.8c0,0,0.8-0.7,0.9-0.5c0.1,0.1-0.1,1.8-0.1,1.8s1.8,0,1.9-0.1c0.1-0.1-0.4-1.8-0.2-1.8
				c0.2,0,0.7,0.5,0.7,0.5l1.7-2.7l-0.4-0.1L25.7,25l-3-1.5L22.4,23.6z"/>
			<linearGradient id="SVGID_22_" gradientUnits="userSpaceOnUse" x1="3.2826" y1="26.0908" x2="42.9615" y2="26.0908">
				<stop  offset="0" style="stop-color:#6A9BF4"/>
				<stop  offset="0.6793" style="stop-color:#766DF4"/>
				<stop  offset="1" style="stop-color:#766DF4"/>
			</linearGradient>
			<polygon class="st67" points="24.2,24.9 25.3,25.7 25,27.7 26.5,27.6 26.1,25.8 27,24.9 26.6,24.5 24.6,24.5 			"/>
			<linearGradient id="SVGID_23_" gradientUnits="userSpaceOnUse" x1="3.2826" y1="24.112" x2="42.9615" y2="24.112">
				<stop  offset="0" style="stop-color:#6A9BF4"/>
				<stop  offset="0.6793" style="stop-color:#766DF4"/>
				<stop  offset="1" style="stop-color:#766DF4"/>
			</linearGradient>
			<path class="st68" d="M24,22.3l-1.4,1.3c0,0,1.4,2.5,1.5,2.5c0.1,0,1.2-1.4,1.2-1.4l0.7,0l1.1,1.2l1.3-2.3l-1.3-1.4
				c0,0-1.2,2.2-1.4,2.3c-0.2,0.1-0.2,0.1-0.4-0.1C25.3,24.2,24,22.3,24,22.3z"/>
			<linearGradient id="SVGID_24_" gradientUnits="userSpaceOnUse" x1="3.2826" y1="17.7641" x2="42.9615" y2="17.7641">
				<stop  offset="0" style="stop-color:#6A9BF4"/>
				<stop  offset="0.6793" style="stop-color:#766DF4"/>
				<stop  offset="1" style="stop-color:#766DF4"/>
			</linearGradient>
			<ellipse class="st69" cx="25.7" cy="17.8" rx="2.9" ry="3.9"/>
			<linearGradient id="SVGID_25_" gradientUnits="userSpaceOnUse" x1="3.2826" y1="18.0236" x2="42.9615" y2="18.0236">
				<stop  offset="0" style="stop-color:#6A9BF4"/>
				<stop  offset="0.6793" style="stop-color:#766DF4"/>
				<stop  offset="1" style="stop-color:#766DF4"/>
			</linearGradient>
			<path class="st70" d="M23.1,17.7c0.3,0.6,0.2,1.2-0.2,1.3c-0.4,0.2-0.9-0.1-1.2-0.7c-0.3-0.6-0.2-1.2,0.2-1.3
				S22.9,17.1,23.1,17.7z"/>
			<linearGradient id="SVGID_26_" gradientUnits="userSpaceOnUse" x1="3.2826" y1="18.0236" x2="42.9615" y2="18.0236">
				<stop  offset="0" style="stop-color:#6A9BF4"/>
				<stop  offset="0.6793" style="stop-color:#766DF4"/>
				<stop  offset="1" style="stop-color:#766DF4"/>
			</linearGradient>
			<path class="st71" d="M28.1,17.7c-0.3,0.6-0.2,1.2,0.2,1.3c0.4,0.2,0.9-0.1,1.2-0.7c0.3-0.6,0.2-1.2-0.2-1.3
				C28.9,16.8,28.4,17.1,28.1,17.7z"/>
			<linearGradient id="SVGID_27_" gradientUnits="userSpaceOnUse" x1="3.2826" y1="19.8194" x2="42.9615" y2="19.8194">
				<stop  offset="0" style="stop-color:#6A9BF4"/>
				<stop  offset="0.6793" style="stop-color:#766DF4"/>
				<stop  offset="1" style="stop-color:#766DF4"/>
			</linearGradient>
			<path class="st72" d="M27,19.4c0,0-0.6,0.9-1.3,0.9c-0.7,0-1.3-0.9-1.3-0.9H27z"/>
			<linearGradient id="SVGID_28_" gradientUnits="userSpaceOnUse" x1="3.2826" y1="16.0343" x2="42.9615" y2="16.0343">
				<stop  offset="0" style="stop-color:#6A9BF4"/>
				<stop  offset="0.6793" style="stop-color:#766DF4"/>
				<stop  offset="1" style="stop-color:#766DF4"/>
			</linearGradient>
			<path class="st73" d="M24,15.1c1.2-0.8,1.7-0.7,2.6,0.7c0.9,1.4,1.9,1.4,1.9,1.4l0.1-1.4c0,0-1.3-2.5-3.1-2.2
				c-1.8,0.3-2.8,1.9-2.8,1.9s-0.1,3,0.2,3.1c0.2,0.1,0.3-1,0.4-1.2c0.2-0.2-0.2-1.2,0.1-1.7C23.7,15.2,24,15.1,24,15.1z"/>
			<linearGradient id="SVGID_29_" gradientUnits="userSpaceOnUse" x1="3.2826" y1="17.753" x2="42.9615" y2="17.753">
				<stop  offset="0" style="stop-color:#6A9BF4"/>
				<stop  offset="0.6793" style="stop-color:#766DF4"/>
				<stop  offset="1" style="stop-color:#766DF4"/>
			</linearGradient>
			<path class="st74" d="M27.8,16.6c0.4,0.4,0.3,2.2,0.5,2.2s0.3-1.7,0.2-1.9C28.4,16.8,27.8,16.6,27.8,16.6z"/>
		</g>
		<linearGradient id="SVGID_30_" gradientUnits="userSpaceOnUse" x1="3.2826" y1="32.8029" x2="42.9615" y2="32.8029">
			<stop  offset="0" style="stop-color:#6A9BF4"/>
			<stop  offset="0.6793" style="stop-color:#766DF4"/>
			<stop  offset="1" style="stop-color:#766DF4"/>
		</linearGradient>
		<path class="st75" d="M32,33.6H18.9c-0.5,0-0.8-0.4-0.8-0.8c0-0.5,0.4-0.8,0.8-0.8H32c0.5,0,0.8,0.4,0.8,0.8S32.5,33.6,32,33.6z"
			/>
		<linearGradient id="SVGID_31_" gradientUnits="userSpaceOnUse" x1="3.2826" y1="35.3798" x2="42.9615" y2="35.3798">
			<stop  offset="0" style="stop-color:#6A9BF4"/>
			<stop  offset="0.6793" style="stop-color:#766DF4"/>
			<stop  offset="1" style="stop-color:#766DF4"/>
		</linearGradient>
		<path class="st76" d="M30.4,36.2h-9.9c-0.5,0-0.8-0.4-0.8-0.8c0-0.5,0.4-0.8,0.8-0.8h9.9c0.5,0,0.8,0.4,0.8,0.8
			S30.9,36.2,30.4,36.2z"/>
		<linearGradient id="SVGID_32_" gradientUnits="userSpaceOnUse" x1="3.2826" y1="44.9949" x2="42.9615" y2="44.9949">
			<stop  offset="0" style="stop-color:#6A9BF4"/>
			<stop  offset="0.6793" style="stop-color:#766DF4"/>
			<stop  offset="1" style="stop-color:#766DF4"/>
		</linearGradient>
		<path class="st77" d="M37.5,45.5h-24c-0.3,0-0.5-0.2-0.5-0.5c0-0.3,0.2-0.5,0.5-0.5h24c0.3,0,0.5,0.2,0.5,0.5
			C38,45.3,37.7,45.5,37.5,45.5z"/>
		<linearGradient id="SVGID_33_" gradientUnits="userSpaceOnUse" x1="3.2826" y1="47.257" x2="42.9615" y2="47.257">
			<stop  offset="0" style="stop-color:#6A9BF4"/>
			<stop  offset="0.6793" style="stop-color:#766DF4"/>
			<stop  offset="1" style="stop-color:#766DF4"/>
		</linearGradient>
		<path class="st78" d="M37.5,47.7h-24c-0.3,0-0.5-0.2-0.5-0.5c0-0.3,0.2-0.5,0.5-0.5h24c0.3,0,0.5,0.2,0.5,0.5S37.7,47.7,37.5,47.7
			z"/>
		<linearGradient id="SVGID_34_" gradientUnits="userSpaceOnUse" x1="3.2826" y1="49.5191" x2="42.9615" y2="49.5191">
			<stop  offset="0" style="stop-color:#6A9BF4"/>
			<stop  offset="0.6793" style="stop-color:#766DF4"/>
			<stop  offset="1" style="stop-color:#766DF4"/>
		</linearGradient>
		<path class="st79" d="M37.5,50h-24c-0.3,0-0.5-0.2-0.5-0.5c0-0.3,0.2-0.5,0.5-0.5h24c0.3,0,0.5,0.2,0.5,0.5
			C38,49.8,37.7,50,37.5,50z"/>
		<g>
			<linearGradient id="SVGID_35_" gradientUnits="userSpaceOnUse" x1="3.2826" y1="19.2032" x2="42.9615" y2="19.2032">
				<stop  offset="0" style="stop-color:#6A9BF4"/>
				<stop  offset="0.6793" style="stop-color:#766DF4"/>
				<stop  offset="1" style="stop-color:#766DF4"/>
			</linearGradient>
			<path class="st80" d="M34.1,27.9H16.9c-0.4,0-0.8-0.3-0.8-0.8V11.2c0-0.4,0.3-0.8,0.8-0.8h17.3c0.4,0,0.8,0.3,0.8,0.8v15.9
				C34.9,27.6,34.5,27.9,34.1,27.9z M16.9,11c-0.1,0-0.3,0.1-0.3,0.3v15.9c0,0.1,0.1,0.3,0.3,0.3h17.3c0.1,0,0.3-0.1,0.3-0.3V11.2
				c0-0.1-0.1-0.3-0.3-0.3L16.9,11L16.9,11z"/>
		</g>
		<g>
			<linearGradient id="SVGID_36_" gradientUnits="userSpaceOnUse" x1="3.2826" y1="39.94" x2="42.9615" y2="39.94">
				<stop  offset="0" style="stop-color:#6A9BF4"/>
				<stop  offset="0.6793" style="stop-color:#766DF4"/>
				<stop  offset="1" style="stop-color:#766DF4"/>
			</linearGradient>
			<polygon class="st81" points="17.3,38.4 17.8,39.4 18.9,39.6 18.1,40.4 18.3,41.5 17.3,41 16.3,41.5 16.5,40.4 15.6,39.6 
				16.8,39.4 			"/>
			<linearGradient id="SVGID_37_" gradientUnits="userSpaceOnUse" x1="3.2826" y1="39.94" x2="42.9615" y2="39.94">
				<stop  offset="0" style="stop-color:#6A9BF4"/>
				<stop  offset="0.6793" style="stop-color:#766DF4"/>
				<stop  offset="1" style="stop-color:#766DF4"/>
			</linearGradient>
			<polygon class="st82" points="21.4,38.4 21.9,39.4 23,39.6 22.2,40.4 22.4,41.5 21.4,41 20.4,41.5 20.6,40.4 19.7,39.6 
				20.9,39.4 			"/>
			<linearGradient id="SVGID_38_" gradientUnits="userSpaceOnUse" x1="3.2826" y1="39.94" x2="42.9615" y2="39.94">
				<stop  offset="0" style="stop-color:#6A9BF4"/>
				<stop  offset="0.6793" style="stop-color:#766DF4"/>
				<stop  offset="1" style="stop-color:#766DF4"/>
			</linearGradient>
			<polygon class="st83" points="25.5,38.4 26,39.4 27.1,39.6 26.3,40.4 26.5,41.5 25.5,41 24.5,41.5 24.6,40.4 23.8,39.6 25,39.4 
							"/>
			<linearGradient id="SVGID_39_" gradientUnits="userSpaceOnUse" x1="3.2826" y1="39.94" x2="42.9615" y2="39.94">
				<stop  offset="0" style="stop-color:#6A9BF4"/>
				<stop  offset="0.6793" style="stop-color:#766DF4"/>
				<stop  offset="1" style="stop-color:#766DF4"/>
			</linearGradient>
			<polygon class="st84" points="29.5,38.4 30,39.4 31.2,39.6 30.4,40.4 30.5,41.5 29.5,41 28.5,41.5 28.7,40.4 27.9,39.6 29,39.4 
							"/>
			<linearGradient id="SVGID_40_" gradientUnits="userSpaceOnUse" x1="3.2826" y1="39.94" x2="42.9615" y2="39.94">
				<stop  offset="0" style="stop-color:#6A9BF4"/>
				<stop  offset="0.6793" style="stop-color:#766DF4"/>
				<stop  offset="1" style="stop-color:#766DF4"/>
			</linearGradient>
			<polygon class="st85" points="33.7,38.4 34.2,39.4 35.3,39.6 34.5,40.4 34.7,41.5 33.7,41 32.7,41.5 32.9,40.4 32.1,39.6 
				33.2,39.4 			"/>
		</g>
	</g>
</g>
</svg>
