<?xml version="1.0" encoding="utf-8"?>
<!-- Generator: Adobe Illustrator 27.5.0, SVG Export Plug-In . SVG Version: 6.00 Build 0)  -->
<svg version="1.1" xmlns="http://www.w3.org/2000/svg" xmlns:xlink="http://www.w3.org/1999/xlink" x="0px" y="0px"
	 viewBox="0 0 500 500" style="enable-background:new 0 0 500 500;" xml:space="preserve">
<g id="Background_Complete">
	<g>
		<rect y="382.398" style="fill:#EBEBEB;" width="500" height="0.25"/>
		<rect x="416.779" y="398.494" style="fill:#EBEBEB;" width="33.122" height="0.25"/>
		<rect x="333.381" y="398.494" style="fill:#EBEBEB;" width="70.806" height="0.25"/>
		<rect x="275.141" y="389.208" style="fill:#EBEBEB;" width="19.192" height="0.25"/>
		<rect x="52.459" y="390.888" style="fill:#EBEBEB;" width="34.29" height="0.25"/>
		<rect x="95.652" y="390.888" style="fill:#EBEBEB;" width="62.348" height="0.25"/>
		<rect x="188.333" y="395.111" style="fill:#EBEBEB;" width="36.814" height="0.25"/>
		<path style="fill:#EBEBEB;" d="M237.014,337.8H43.915c-3.147,0-5.708-2.561-5.708-5.708V60.66c0-3.147,2.561-5.708,5.708-5.708
			h193.099c3.146,0,5.707,2.561,5.707,5.708v271.432C242.721,335.239,240.16,337.8,237.014,337.8z M43.915,55.203
			c-3.01,0-5.458,2.448-5.458,5.458v271.432c0,3.01,2.448,5.458,5.458,5.458h193.099c3.009,0,5.457-2.448,5.457-5.458V60.66
			c0-3.009-2.448-5.458-5.457-5.458H43.915z"/>
		<path style="fill:#EBEBEB;" d="M453.31,337.8H260.212c-3.147,0-5.707-2.561-5.707-5.708V60.66c0-3.147,2.561-5.708,5.707-5.708
			H453.31c3.148,0,5.708,2.561,5.708,5.708v271.432C459.019,335.239,456.458,337.8,453.31,337.8z M260.212,55.203
			c-3.009,0-5.457,2.448-5.457,5.458v271.432c0,3.01,2.448,5.458,5.457,5.458H453.31c3.01,0,5.458-2.448,5.458-5.458V60.66
			c0-3.009-2.448-5.458-5.458-5.458H260.212z"/>
	</g>
	<g>
		<g>
			<rect x="62.052" y="89.875" style="fill:#F5F5F5;" width="96.693" height="266.697"/>
			
				<rect x="158.745" y="89.875" transform="matrix(-1 -1.224647e-16 1.224647e-16 -1 318.4705 446.4465)" style="fill:#EBEBEB;" width="0.979" height="266.697"/>
			<rect x="71.383" y="100.048" style="fill:#FFFFFF;" width="78.033" height="246.35"/>
		</g>
		<g>
			<g>
				<g>
					<g>
						
							<rect x="200.181" y="78.268" transform="matrix(-1 -1.224647e-16 1.224647e-16 -1 628.4555 326.0058)" style="fill:#E6E6E6;" width="228.093" height="169.471"/>
						
							<rect x="196.651" y="78.268" transform="matrix(-1 -1.224647e-16 1.224647e-16 -1 621.3951 326.0058)" style="fill:#F5F5F5;" width="228.093" height="169.471"/>
						
							<rect x="233.08" y="55.293" transform="matrix(-1.836970e-16 1 -1 -1.836970e-16 473.7004 -147.6947)" style="fill:#FFFFFF;" width="155.235" height="215.42"/>
						
							<rect x="126.705" y="161.668" transform="matrix(-1.836970e-16 1 -1 -1.836970e-16 367.325 -41.3191)" style="fill:#E6E6E6;" width="155.235" height="2.669"/>
						
							<rect x="199.272" y="197.903" transform="matrix(-1 -1.224647e-16 1.224647e-16 -1 621.395 405.3618)" style="fill:#F5F5F5;" width="222.851" height="9.556"/>
					</g>
				</g>
			</g>
			<g style="opacity:0.4;">
				<rect x="189.578" y="70.779" style="fill:#E6E6E6;" width="21.535" height="54.465"/>
				
					<rect x="211.113" y="70.779" transform="matrix(-1 -1.224647e-16 1.224647e-16 -1 432.9006 191.6458)" style="fill:#F5F5F5;" width="10.675" height="50.089"/>
				<rect x="221.788" y="70.779" style="fill:#E6E6E6;" width="21.535" height="54.465"/>
				
					<rect x="243.323" y="70.779" transform="matrix(-1 -1.224647e-16 1.224647e-16 -1 497.3205 191.6458)" style="fill:#F5F5F5;" width="10.675" height="50.089"/>
				<rect x="253.998" y="70.779" style="fill:#E6E6E6;" width="21.535" height="54.465"/>
				
					<rect x="275.533" y="70.779" transform="matrix(-1 -1.224647e-16 1.224647e-16 -1 561.7403 191.6458)" style="fill:#F5F5F5;" width="10.675" height="50.089"/>
				<rect x="286.208" y="70.779" style="fill:#E6E6E6;" width="21.535" height="54.465"/>
				
					<rect x="307.742" y="70.779" transform="matrix(-1 -1.224647e-16 1.224647e-16 -1 626.1602 191.6458)" style="fill:#F5F5F5;" width="10.675" height="50.089"/>
				<rect x="318.418" y="70.779" style="fill:#E6E6E6;" width="21.535" height="54.465"/>
				
					<rect x="339.952" y="70.779" transform="matrix(-1 -1.224647e-16 1.224647e-16 -1 690.5801 191.6458)" style="fill:#F5F5F5;" width="10.675" height="50.089"/>
				<rect x="350.628" y="70.779" style="fill:#E6E6E6;" width="21.535" height="54.465"/>
				
					<rect x="372.162" y="70.779" transform="matrix(-1 -1.224647e-16 1.224647e-16 -1 754.9999 191.6458)" style="fill:#F5F5F5;" width="10.675" height="50.089"/>
				<rect x="382.838" y="70.779" style="fill:#E6E6E6;" width="21.535" height="54.465"/>
				
					<rect x="404.372" y="70.779" transform="matrix(-1 -1.224647e-16 1.224647e-16 -1 819.4198 191.6458)" style="fill:#F5F5F5;" width="10.675" height="50.089"/>
				<rect x="415.048" y="70.779" style="fill:#E6E6E6;" width="21.535" height="54.465"/>
			</g>
		</g>
		<g>
			<g>
				
					<rect x="203.718" y="283" transform="matrix(-1 -1.224647e-16 1.224647e-16 -1 434.1246 665.3984)" style="fill:#E6E6E6;" width="26.688" height="99.398"/>
				<polygon style="fill:#F0F0F0;" points="208.16,382.398 203.718,382.398 203.718,373.454 212.817,373.454 				"/>
				
					<rect x="395.754" y="283" transform="matrix(-1 -1.224647e-16 1.224647e-16 -1 818.1956 665.3984)" style="fill:#E6E6E6;" width="26.688" height="99.398"/>
				
					<rect x="203.718" y="283" transform="matrix(-1 -1.224647e-16 1.224647e-16 -1 603.3483 661.9638)" style="fill:#F0F0F0;" width="195.911" height="95.964"/>
				
					<rect x="207.164" y="287.253" transform="matrix(-1 -1.224647e-16 1.224647e-16 -1 603.3482 600.8235)" style="fill:#E6E6E6;" width="189.02" height="26.317"/>
				<path style="fill:#F0F0F0;" d="M254.978,295.431h93.392c4.333,0,8.476-3.247,11.457-8.978l0,0H243.521l0,0
					C246.502,292.185,250.644,295.431,254.978,295.431z"/>
				<polygon style="fill:#F0F0F0;" points="395.188,382.398 399.63,382.398 399.63,373.454 390.531,373.454 				"/>
				
					<rect x="207.164" y="317.823" transform="matrix(-1 -1.224647e-16 1.224647e-16 -1 603.3482 661.9638)" style="fill:#E6E6E6;" width="189.02" height="26.317"/>
				<path style="fill:#F0F0F0;" d="M254.978,326.002h93.392c4.333,0,8.476-3.247,11.457-8.979l0,0H243.521l0,0
					C246.502,322.755,250.644,326.002,254.978,326.002z"/>
				
					<rect x="207.164" y="348.394" transform="matrix(-1 -1.224647e-16 1.224647e-16 -1 603.3482 723.1041)" style="fill:#E6E6E6;" width="189.02" height="26.317"/>
				<path style="fill:#F0F0F0;" d="M254.978,356.572h93.392c4.333,0,8.476-3.247,11.457-8.978l0,0H243.521l0,0
					C246.502,353.325,250.644,356.572,254.978,356.572z"/>
			</g>
		</g>
	</g>
</g>
<g id="Background_Simple" style="display:none;">
	<g style="display:inline;">
		<g>
			<path style="fill:#407BFF;" d="M414.995,284.243c-4.13-16.77-24.486-40.172-42.107-46.564
				c-22.501-8.162-33.492,5.119-53.199,2.848c-53.216-6.133-74.564-48.414-101.981-86.675
				C156.947,69.057,36.781,106.45,71.297,217.475c20.747,66.738,100.042,167.579,180.181,100.434
				c34.638-29.022,19.633-45.557,66.285-20.12C336.172,307.827,433.702,360.198,414.995,284.243z"/>
		</g>
		<path style="opacity:0.9;fill:#FFFFFF;" d="M414.995,284.243c-4.13-16.77-24.486-40.172-42.107-46.564
			c-22.501-8.162-33.492,5.119-53.199,2.848c-53.216-6.133-74.564-48.414-101.981-86.675
			C156.947,69.057,36.781,106.45,71.297,217.475c20.747,66.738,100.042,167.579,180.181,100.434
			c34.638-29.022,19.633-45.557,66.285-20.12C336.172,307.827,433.702,360.198,414.995,284.243z"/>
	</g>
</g>
<g id="Shadow_1_">
	<ellipse id="_x3C_Path_x3E__270_" style="fill:#F5F5F5;" cx="250" cy="416.238" rx="193.889" ry="11.323"/>
</g>
<g id="Character_2">
	<g>
		<g>
			<g>
				<g>
					<path style="fill:#407BFF;" d="M369.881,410.534h-1.072c-0.418,0-0.776-0.367-0.849-0.87l-6.585-45.828h5l4.361,45.524
						C370.797,409.985,370.397,410.534,369.881,410.534z"/>
					<path style="opacity:0.3;" d="M369.881,410.534h-1.072c-0.418,0-0.776-0.367-0.849-0.87l-6.585-45.828h5l4.361,45.524
						C370.797,409.985,370.397,410.534,369.881,410.534z"/>
				</g>
				<g>
					<path style="fill:#407BFF;" d="M383.6,410.534h-1.072c-0.418,0-0.776-0.367-0.849-0.87l-6.585-45.828h5l4.361,45.524
						C384.516,409.985,384.116,410.534,383.6,410.534z"/>
					<path style="opacity:0.3;" d="M383.6,410.534h-1.072c-0.418,0-0.776-0.367-0.849-0.87l-6.585-45.828h5l4.361,45.524
						C384.516,409.985,384.116,410.534,383.6,410.534z"/>
				</g>
				<g>
					<path style="fill:#407BFF;" d="M307.158,410.534h1.072c0.418,0,0.776-0.367,0.849-0.87l6.585-45.828h-5l-4.361,45.524
						C306.243,409.985,306.643,410.534,307.158,410.534z"/>
					<path style="opacity:0.3;" d="M307.158,410.534h1.072c0.418,0,0.776-0.367,0.849-0.87l6.585-45.828h-5l-4.361,45.524
						C306.243,409.985,306.643,410.534,307.158,410.534z"/>
				</g>
				<g>
					<path style="fill:#407BFF;" d="M293.439,410.534h1.072c0.418,0,0.776-0.367,0.849-0.87l6.585-45.828h-5l-4.361,45.524
						C292.524,409.985,292.924,410.534,293.439,410.534z"/>
					<path style="opacity:0.3;" d="M293.439,410.534h1.072c0.418,0,0.776-0.367,0.849-0.87l6.585-45.828h-5l-4.361,45.524
						C292.524,409.985,292.924,410.534,293.439,410.534z"/>
				</g>
			</g>
			<g>
				<path style="fill:#407BFF;" d="M275.66,309.512h33.68c5.975-20.751,27.477-37.123,49.496-37.123c0.001,0,0.002,0,0.002,0h10.937
					c23.048,0,37.922,17.934,33.223,40.057c-0.863,4.061-2.33,7.979-4.286,11.673l-5.312,32.194
					c-0.685,4.155-4.001,7.523-7.404,7.523l-101.375,0c-3.404,0-6.719-3.368-7.404-7.523l-6.48-39.277
					C270.052,312.881,272.256,309.512,275.66,309.512z"/>
				<path style="opacity:0.5;fill:#FFFFFF;" d="M275.66,309.512h33.68c5.975-20.751,27.477-37.123,49.496-37.123
					c0.001,0,0.002,0,0.002,0h10.937c23.048,0,37.922,17.934,33.223,40.057c-0.863,4.061-2.33,7.979-4.286,11.673l-5.312,32.194
					c-0.685,4.155-4.001,7.523-7.404,7.523l-101.375,0c-3.404,0-6.719-3.368-7.404-7.523l-6.48-39.277
					C270.052,312.881,272.256,309.512,275.66,309.512z"/>
			</g>
		</g>
		<g>
			<g>
				<g>
					<path style="fill:#263238;" d="M267.228,398.677l8.342,3.828c0.303,0.139,0.436,0.455,0.318,0.76l-2.625,6.786
						c-0.272,0.704-1.212,1.057-1.906,0.724c-2.881-1.383-4.19-2.19-7.859-3.874c-2.257-1.036-8.436-4.498-11.22-6.501
						c-2.723-1.959-0.724-4.698,0.635-4.098c6.094,2.688,9.973,2.929,12.825,2.245C266.254,398.423,266.784,398.473,267.228,398.677
						z"/>
					<g>
						<path style="fill:#407BFF;" d="M326.376,296.428c0,0-53.329,0.663-54.153,21.684c-1.184,30.216-5.646,80.385-5.646,80.385
							l8.993,4.007c0,0,15.756-50.345,16.319-73.942c14.962-3.727,53.567,0.031,58.103-12.267
							c3.711-10.061,1.704-19.867,1.704-19.867H326.376z"/>
						<path style="opacity:0.2;" d="M326.376,296.428c0,0-53.329,0.663-54.153,21.684c-1.184,30.216-5.646,80.385-5.646,80.385
							l8.993,4.007c0,0,15.756-50.345,16.319-73.942c14.962-3.727,53.567,0.031,58.103-12.267
							c3.711-10.061,1.704-19.867,1.704-19.867H326.376z"/>
					</g>
				</g>
				<path style="fill:#263238;" d="M337.726,241.122c-0.464,1.94-0.932,3.691-1.469,5.506c-0.525,1.798-1.075,3.587-1.652,5.371
					c-1.171,3.562-2.46,7.1-3.949,10.601c-1.477,3.507-3.128,6.984-5.14,10.413c-1.016,1.713-2.1,3.429-3.387,5.104
					c-1.286,1.675-2.742,3.344-4.646,4.907l-0.148,0.121c-0.104,0.085-0.215,0.167-0.325,0.24c-1.271,0.837-2.455,1.094-3.355,1.204
					c-0.916,0.102-1.66,0.06-2.277-0.016c-1.265-0.155-2.193-0.441-3.063-0.742c-1.713-0.61-3.118-1.31-4.475-2.035
					c-2.693-1.449-5.082-3.072-7.428-4.719c-2.325-1.672-4.563-3.402-6.737-5.2c-2.161-1.829-4.278-3.635-6.34-5.623
					c-1.214-1.171-1.249-3.104-0.079-4.318c0.981-1.017,2.497-1.207,3.677-0.553l0.049,0.028c2.36,1.308,4.741,2.695,7.129,3.985
					c2.378,1.316,4.749,2.617,7.123,3.834c2.356,1.233,4.748,2.377,7.027,3.318c1.13,0.462,2.264,0.86,3.186,1.067
					c0.448,0.101,0.864,0.153,0.973,0.13c0.068-0.001,0.019-0.04-0.214-0.024c-0.22,0.022-0.721,0.086-1.419,0.533l-0.473,0.361
					c0.851-0.804,1.754-1.925,2.589-3.189c0.835-1.268,1.652-2.647,2.41-4.098c1.509-2.916,2.858-6.06,4.104-9.275
					c1.232-3.224,2.384-6.523,3.451-9.861c1.086-3.305,2.074-6.774,2.976-10.011l0.034-0.122c0.907-3.256,4.282-5.16,7.537-4.253
					C336.595,234.69,338.482,237.94,337.726,241.122z"/>
				<g>
					<path style="fill:#263238;" d="M316.109,403.017h10.005c0.364,0,0.639,0.253,0.66,0.608l0.485,7.916
						c0.05,0.821-0.72,1.598-1.559,1.584c-3.483-0.06-5.147-0.265-9.547-0.265c-2.707,0-8.167,0.281-11.904,0.281
						c-3.656,0-3.631-3.696-2.047-4.031c7.103-1.501,9.859-3.571,12.373-5.546C315.028,403.209,315.576,403.017,316.109,403.017z"/>
					<path style="fill:#407BFF;" d="M340.749,296.428c0,0-48.372,4.085-47.182,25.09c1.303,23.001,22.541,81.499,22.541,81.499
						h9.782c0,0-8.373-53.571-11.316-76.991c13.634,0,45.255,2.567,49.791-9.731c3.711-10.061,1.704-19.867,1.704-19.867H340.749z"
						/>
				</g>
				<path style="fill:#407BFF;" d="M287.678,262.4c0,0-1.391-2.256-2.72-3.338c-1.978,1.855-3.091,7.264-3.091,7.264l2.735,0.247
					C284.602,266.573,287.74,265.553,287.678,262.4z"/>
				<path style="fill:#FFC3BD;" d="M277.639,257.54l-3.111-1.351c-0.835-0.363-1.81-0.052-2.281,0.728l-1.473,2.441
					c-0.425,0.703-0.325,1.604,0.244,2.198l4.27,4.455l7.122-0.288c0.819-0.033,1.556-0.504,1.929-1.234l0.823-1.606
					c0.515-1.006,0.233-2.267-0.71-2.89C282.144,258.465,277.639,257.54,277.639,257.54z"/>
				<path style="fill:#263238;" d="M325.924,239.067c-1.428,8.974-3.272,28.433,0.496,57.737l39.649-0.375
					c-0.237-20.304,2.945-39.372,6.052-57.996c0.516-3.095-1.605-5.964-4.711-6.412c-9.524-1.372-24.901-1.32-34.23-0.028
					C329.469,232.508,326.513,235.365,325.924,239.067z"/>
				<path style="fill:#263238;" d="M372.483,235.901c1.163,2.887,2.1,5.661,3.058,8.521c0.949,2.842,1.783,5.727,2.571,8.641
					c0.757,2.923,1.482,5.872,2.035,8.902c0.556,3.031,1.046,6.109,1.216,9.375c0.053,0.81,0.068,1.649,0.078,2.488l-0.015,1.282
					c-0.025,0.904-0.156,2.277-0.994,3.745c-0.396,0.711-1.018,1.44-1.664,1.942c-0.338,0.278-0.663,0.485-0.992,0.665
					c-0.348,0.199-0.655,0.33-0.956,0.441c-1.224,0.447-2.169,0.506-2.937,0.511c-1.506-0.029-2.539-0.289-3.502-0.548
					c-1.876-0.545-3.38-1.211-4.845-1.91c-1.449-0.714-2.81-1.469-4.141-2.243c-5.288-3.136-10.047-6.629-14.665-10.498
					c-1.292-1.082-1.461-3.006-0.379-4.298c0.912-1.089,2.423-1.38,3.649-0.796l0.07,0.034c5.171,2.464,10.426,4.987,15.55,7.11
					c1.278,0.527,2.554,1.021,3.795,1.433c1.224,0.423,2.457,0.788,3.417,0.934c0.454,0.074,0.869,0.065,0.823,0.021
					c-0.04-0.012-0.252-0.051-0.795,0.135c-0.129,0.049-0.268,0.11-0.462,0.209c-0.167,0.093-0.337,0.205-0.542,0.358
					c-0.358,0.281-0.739,0.722-0.967,1.112c-0.478,0.829-0.501,1.459-0.516,1.638l-0.057-0.905
					c-0.055-0.616-0.108-1.235-0.199-1.876c-0.684-5.128-2.13-10.589-3.733-15.957c-1.607-5.364-3.445-10.848-5.318-16.058
					l-0.019-0.052c-1.143-3.181,0.508-6.686,3.689-7.83C367.84,231.312,371.257,232.87,372.483,235.901z"/>
				<path style="fill:#FFC3BD;" d="M356.632,211.913l-4.797,3.978l-6.531,5.424c0.191,0.883,0.34,1.777,0.415,2.638
					c0.312,3.153-0.378,6.053-4.211,7.522c-1.447,0.555-2.707,1.613-3.164,3.094c-0.517,1.676,0.094,3.538,5.356,3.537
					c7.726-0.002,11.762-3.437,13.281-5.129c0.428-0.477,0.434-1.179,0.065-1.702C353.986,226.933,355.384,217.334,356.632,211.913z
					"/>
				<path style="fill:#407BFF;" d="M343.511,236.406c0,0,0.514,0.556,0.669,1.36c0.402-0.68,1.449-1.36,1.449-1.36
					s2.294,1.02,2.771,3.245c-1.47-0.093-4.159-1.546-4.159-1.546s-1.391,0.804-2.782,0.866
					C341.522,237.24,343.511,236.406,343.511,236.406z"/>
				<path style="fill:#407BFF;" d="M345.629,236.406c2.224,2.505,2.647,5.831,2.647,5.831s12.802-3.199,12.201-11.543
					c-1.077-0.68-3.549-1.09-3.549-1.09S354.175,234.602,345.629,236.406z"/>
				<path style="fill:#407BFF;" d="M343.511,236.406c-2.224,2.505-2.818,5.831-2.818,5.831s-6.566-5.976-0.17-11.474
					c1.125-0.463,3.384-0.71,3.384-0.71S339.658,233.5,343.511,236.406z"/>
				<path style="opacity:0.2;" d="M345.305,221.315c0.191,0.883,0.34,1.777,0.415,2.638c2.436-0.49,5.69-3.085,6.03-5.573
					c0.128-0.936,0.149-1.84,0.085-2.489L345.305,221.315z"/>
				<path style="fill:#263238;" d="M338.296,194.687c-6.022,4.27-2.652,14.287,2.484,10.454
					C345.917,201.308,343.204,191.207,338.296,194.687z"/>
				<path style="fill:#FFC3BD;" d="M358.61,203.607c-1.667,7.668-2.253,12.226-6.782,15.725c-6.812,5.263-15.84,0.587-16.502-7.343
					c-0.596-7.138,2.231-18.478,10.298-20.649C353.57,189.201,360.277,195.939,358.61,203.607z"/>
				<path style="fill:#263238;" d="M355.06,197.924c-4.251-1.175-15.211,1.615-19.102-2.535c-4.173-4.451,1.916-6.615,3.709-5.069
					c-2.272-2.596-1.423-5.378,1.793-5.131c2.345,0.18,3.093,2.782,3.093,2.782s-0.392-4.547,3.643-4.234
					c3.664,0.284,3.675,5.224,3.675,5.224s8.745-2.473,11.659,5.873c5.502-0.124,5.378,11.457-5.687,15.578
					C353.35,208.186,353.143,200.286,355.06,197.924z"/>
				<path style="fill:#263238;" d="M362.353,196.503c-0.528,0-0.997-0.378-1.094-0.916c-0.109-0.604,0.291-1.181,0.893-1.292
					c0.1-0.03,0.397-0.274,0.644-0.812c0.261-0.565,0.429-1.409,0.121-2.083c-0.255-0.56-0.008-1.219,0.551-1.475
					c0.558-0.258,1.219-0.008,1.475,0.551c0.667,1.464,0.313,3.116-0.241,4.175c-0.531,1.015-1.315,1.684-2.15,1.833
					C362.485,196.497,362.419,196.503,362.353,196.503z"/>
				<path style="fill:#FFC3BD;" d="M359.858,210.716c-1.125,1.477-2.77,2.354-4.211,2.608c-2.168,0.382-2.827-1.612-1.868-3.549
					c0.863-1.743,3.03-4.042,5.034-3.544C360.788,206.721,361.144,209.027,359.858,210.716z"/>
				<path style="fill:#263238;" d="M345.478,204.308c-0.097,0.629-0.51,1.099-0.923,1.05c-0.413-0.049-0.669-0.599-0.572-1.228
					c0.097-0.629,0.51-1.099,0.923-1.05C345.319,203.13,345.575,203.679,345.478,204.308z"/>
				<path style="fill:#263238;" d="M338.34,203.46c-0.097,0.629-0.51,1.099-0.923,1.05c-0.413-0.049-0.669-0.599-0.572-1.228
					c0.097-0.629,0.51-1.099,0.923-1.05C338.181,202.281,338.437,202.831,338.34,203.46z"/>
				<path style="fill:#ED847E;" d="M340.515,203.712c0,0-1.498,3.051-2.981,4.484c0.88,0.94,2.542,0.617,2.542,0.617
					L340.515,203.712z"/>
				<path style="fill:#263238;" d="M342.997,212.045c2.506,0,3.906-1.562,3.97-1.635c0.068-0.077,0.06-0.195-0.017-0.263
					c-0.077-0.069-0.195-0.06-0.263,0.017c-0.016,0.018-1.609,1.798-4.385,1.465c-0.103-0.013-0.195,0.061-0.207,0.164
					c-0.012,0.102,0.061,0.195,0.164,0.207C342.513,212.031,342.76,212.045,342.997,212.045z"/>
				<path style="fill:#263238;" d="M348.348,200.682c0.06-0.013,0.117-0.042,0.166-0.085c0.154-0.137,0.168-0.373,0.031-0.527
					c-1.357-1.525-3.068-1.248-3.139-1.235c-0.195,0.014-0.34,0.228-0.304,0.432c0.035,0.203,0.228,0.339,0.431,0.304
					c0.071-0.011,1.388-0.202,2.454,0.996C348.08,200.671,348.22,200.71,348.348,200.682z"/>
				<path style="fill:#263238;" d="M335.791,200.272c0.115,0.033,0.243,0.01,0.342-0.072c1.306-1.086,2.649-0.727,2.662-0.723
					c0.199,0.056,0.405-0.06,0.46-0.259c0.056-0.198-0.059-0.403-0.257-0.46c-0.001,0-0.001,0-0.002-0.001
					c-0.07-0.02-1.737-0.466-3.341,0.868c-0.159,0.132-0.18,0.367-0.049,0.526C335.657,200.212,335.722,200.252,335.791,200.272z"/>
				<path style="fill:#FFC3BD;" d="M348.808,256.941l-4.376-2.72c-1.313-0.816-3.041-0.402-3.84,0.923l-0.515,0.854
					c-0.623,1.032-0.508,2.348,0.283,3.256l3.02,3.467c0,0,2.628,6.128,5.675,4.51l2.324-4.027L348.808,256.941z"/>
				<path style="fill:#407BFF;" d="M353.316,264.776c0,0-1.101-2.707-2.287-4.077c-2.198,1.883-3.978,7.886-3.978,7.886l2.688,0.579
					C349.739,269.164,352.984,268.352,353.316,264.776z"/>
			</g>
		</g>
		<g>
			<path style="fill:#407BFF;" d="M386.831,309.512h-51.917c-3.404,0-5.607,3.368-4.922,7.523l6.48,39.277
				c0.686,4.155,4,7.523,7.404,7.523l36.527,0L386.831,309.512z"/>
			<path style="opacity:0.5;fill:#FFFFFF;" d="M386.831,309.512h-51.917c-3.404,0-5.607,3.368-4.922,7.523l6.48,39.277
				c0.686,4.155,4,7.523,7.404,7.523l36.527,0L386.831,309.512z"/>
		</g>
	</g>
</g>
<g id="Table">
	<g>
		<g>
			<g>
				<path style="fill:#407BFF;" d="M147.283,413.903h1.498c0.51,0,0.934-0.43,0.971-0.986l8.251-123.888h-6.197l-5.495,123.759
					C146.284,413.395,146.727,413.903,147.283,413.903z"/>
				<path style="opacity:0.3;fill:#FFFFFF;" d="M147.283,413.903h1.498c0.51,0,0.934-0.43,0.971-0.986l8.251-123.888h-6.197
					l-5.495,123.759C146.284,413.395,146.727,413.903,147.283,413.903z"/>
			</g>
			<g>
				<path style="fill:#407BFF;" d="M130.279,413.903h1.498c0.51,0,0.934-0.43,0.971-0.986l8.251-123.888h-6.197l-5.495,123.759
					C129.28,413.395,129.723,413.903,130.279,413.903z"/>
				<path style="opacity:0.3;fill:#FFFFFF;" d="M130.279,413.903h1.498c0.51,0,0.934-0.43,0.971-0.986l8.251-123.888h-6.197
					l-5.495,123.759C129.28,413.395,129.723,413.903,130.279,413.903z"/>
			</g>
			<g>
				<path style="fill:#407BFF;" d="M339.926,413.903h-1.498c-0.51,0-0.934-0.43-0.971-0.986l-8.251-123.888h6.197l5.495,123.759
					C340.926,413.395,340.482,413.903,339.926,413.903z"/>
				<path style="opacity:0.3;fill:#FFFFFF;" d="M339.926,413.903h-1.498c-0.51,0-0.934-0.43-0.971-0.986l-8.251-123.888h6.197
					l5.495,123.759C340.926,413.395,340.482,413.903,339.926,413.903z"/>
			</g>
			<g>
				<path style="fill:#407BFF;" d="M356.93,413.903h-1.498c-0.51,0-0.934-0.43-0.971-0.986l-8.251-123.888h6.197l5.495,123.759
					C357.929,413.395,357.486,413.903,356.93,413.903z"/>
				<path style="opacity:0.3;fill:#FFFFFF;" d="M356.93,413.903h-1.498c-0.51,0-0.934-0.43-0.971-0.986l-8.251-123.888h6.197
					l5.495,123.759C357.929,413.395,357.486,413.903,356.93,413.903z"/>
			</g>
		</g>
		<rect x="122.779" y="286.481" style="fill:#407BFF;" width="241.302" height="2.547"/>
	</g>
</g>
<g id="Character_1">
	<g>
		<g>
			<g>
				<path style="fill:#7F3E3B;" d="M118.758,247.019l-2.278,16.769c-0.719,5.584-1.47,11.182-2.008,16.679
					c-0.076,0.691-0.126,1.366-0.182,2.045l-0.083,1.018c0.007-0.075,0.001-0.344-0.035-0.5c-0.016-0.162-0.067-0.337-0.116-0.476
					c-0.033-0.122-0.103-0.26-0.15-0.35c-0.035-0.08-0.1-0.171-0.139-0.226c-0.177-0.227-0.196-0.197-0.149-0.148
					c0.039,0.056,0.181,0.166,0.34,0.285c0.336,0.243,0.809,0.517,1.325,0.775c2.122,1.038,4.745,1.922,7.343,2.725
					c5.247,1.592,10.752,2.969,16.19,4.31l-0.615,4.777c-5.82-0.206-11.533-0.747-17.342-1.795c-2.915-0.554-5.8-1.16-8.912-2.353
					c-0.786-0.31-1.593-0.661-2.47-1.158c-0.443-0.256-0.894-0.543-1.396-0.947c-0.495-0.408-1.032-0.875-1.596-1.702
					c-0.279-0.417-0.549-0.919-0.756-1.53c-0.102-0.308-0.18-0.66-0.237-0.994c-0.046-0.332-0.064-0.779-0.059-1.031l0.025-1.11
					c0.017-0.74,0.029-1.484,0.065-2.21c0.237-5.843,0.762-11.544,1.385-17.245c0.609-5.701,1.336-11.35,2.23-17.028
					L118.758,247.019z"/>
				<path style="fill:#7F3E3B;" d="M151.407,294.969l-3.667,3.351c-0.856,0.782-2.101,0.965-3.146,0.462l-4.053-1.951
					c0,0-6.01-0.248-6.867-3.92l1.554-2.853l9.31-1.035c0.957-0.106,1.922,0.108,2.743,0.61l3.837,2.343
					C152.188,292.629,152.332,294.124,151.407,294.969z"/>
				<path style="fill:#7F3E3B;" d="M129.45,212.564c0.951,5.752,1.758,16.263-2.356,19.96c0,0,10.042,5.258,16.627,14.435
					c7.043-5.58,1.145-13.906,1.145-13.906c-6.331-1.712-6.026-6.439-4.783-10.849L129.45,212.564z"/>
				<g>
					<path style="fill:#407BFF;" d="M148.243,236.59c0,0-0.53-4.877-3.192-7.288c-2.236-2.026-13.971-0.9-17.667-0.488
						c-0.696,0.077-1.297,0.509-1.599,1.14l-2.681,5.6L148.243,236.59z"/>
					<path style="opacity:0.8;fill:#FFFFFF;" d="M148.243,236.59c0,0-0.53-4.877-3.192-7.288c-2.236-2.026-13.971-0.9-17.667-0.488
						c-0.696,0.077-1.297,0.509-1.599,1.14l-2.681,5.6L148.243,236.59z"/>
				</g>
				<path style="fill:#407BFF;" d="M115.73,234.022c-7.241,2.356-8.797,12.064-8.145,19.62l14.615,8.99
					c0,0,3.549-11.034,3.519-16.925C125.687,239.436,120.647,232.422,115.73,234.022z"/>
				<g>
					<path style="fill:#FFFFFF;" d="M118.56,260.43c-0.35,0-0.7-0.14-0.96-0.39c-0.06-0.07-0.12-0.141-0.16-0.21
						c-0.05-0.07-0.1-0.15-0.13-0.24c-0.029-0.08-0.06-0.16-0.08-0.25c-0.02-0.09-0.029-0.17-0.029-0.26
						c0-0.36,0.149-0.71,0.399-0.96c0.51-0.511,1.42-0.511,1.92,0c0.25,0.25,0.4,0.6,0.4,0.96c0,0.09-0.01,0.17-0.03,0.26
						c-0.02,0.09-0.04,0.17-0.08,0.25c-0.029,0.09-0.069,0.17-0.12,0.24c-0.05,0.069-0.109,0.14-0.17,0.21
						C119.27,260.29,118.92,260.43,118.56,260.43z"/>
					<path style="fill:#FFFFFF;" d="M115.75,259.51c0,0,0,0,0.01,0l0,0c-0.52-0.2-0.85-0.69-0.87-1.22l0,0
						c-0.39,0.35-0.96,0.46-1.47,0.22l0,0c-0.5-0.23-0.8-0.74-0.79-1.26l0,0c-0.41,0.33-0.99,0.399-1.48,0.13l0,0
						c-0.489-0.26-0.75-0.78-0.71-1.3l0,0c-0.43,0.3-1.01,0.34-1.489,0.05l0,0l0,0l0,0c-0.641-0.38-0.841-1.22-0.46-1.86l0,0
						c0.39-0.64,1.23-0.85,1.869-0.46l0,0c0.45,0.28,0.681,0.78,0.65,1.27l0,0c0.4-0.29,0.95-0.34,1.42-0.09l0,0
						c0.46,0.25,0.73,0.729,0.72,1.229l0,0c0.381-0.309,0.931-0.39,1.41-0.17l0,0c0.48,0.22,0.771,0.69,0.79,1.18l0,0
						c0.37-0.319,0.9-0.439,1.4-0.25l0,0c0.689,0.28,1.04,1.07,0.76,1.761l0,0c-0.21,0.539-0.72,0.859-1.26,0.859l0,0
						C116.08,259.6,115.92,259.569,115.75,259.51z"/>
					<path style="fill:#FFFFFF;" d="M107.59,255c-0.09,0-0.18-0.01-0.271-0.03c-0.09-0.02-0.17-0.04-0.25-0.08
						c-0.09-0.03-0.17-0.07-0.239-0.12c-0.07-0.05-0.141-0.109-0.2-0.17c-0.07-0.06-0.12-0.13-0.17-0.2
						c-0.05-0.08-0.09-0.159-0.13-0.239c-0.03-0.08-0.061-0.17-0.08-0.25c-0.01-0.091-0.021-0.181-0.021-0.271
						c0-0.09,0.011-0.18,0.021-0.26c0.02-0.09,0.05-0.17,0.08-0.26c0.029-0.08,0.08-0.16,0.13-0.23c0.05-0.07,0.1-0.14,0.17-0.21
						c0.06-0.06,0.13-0.12,0.2-0.17c0.069-0.04,0.149-0.09,0.239-0.12c0.08-0.03,0.16-0.06,0.25-0.08
						c0.441-0.08,0.91,0.061,1.221,0.37c0.069,0.07,0.12,0.14,0.17,0.21c0.05,0.07,0.09,0.15,0.13,0.23
						c0.03,0.09,0.06,0.17,0.07,0.26c0.02,0.08,0.029,0.17,0.029,0.26c0,0.09-0.01,0.18-0.029,0.271
						c-0.011,0.08-0.04,0.17-0.07,0.25c-0.04,0.08-0.08,0.159-0.13,0.239c-0.05,0.07-0.101,0.141-0.17,0.2
						C108.29,254.85,107.939,255,107.59,255z"/>
				</g>
				<path style="fill:#407BFF;" d="M161.768,248.13c-0.612,8.317-2.463,22.324-7.021,45.903l-39.14-1.164
					c1.027-14.448-0.523-25.221-4.064-50.507c-0.646-4.615,2.672-8.835,7.308-9.313c2.513-0.259,5.367-0.473,8.242-0.526
					c6.596-0.122,11.998-0.171,17.773,0.529c1.907,0.232,3.877,0.532,5.758,0.853C157.451,235.071,162.276,241.224,161.768,248.13z"
					/>
				<path style="fill:#263238;" d="M149.7,201.976c0.092,0.772,0.577,1.349,1.081,1.288s0.839-0.735,0.746-1.508
					c-0.093-0.772-0.577-1.349-1.081-1.288S149.608,201.204,149.7,201.976z"/>
				<path style="fill:#263238;" d="M150.229,200.538l1.79-0.757C152.019,199.781,151.242,201.344,150.229,200.538z"/>
				<path style="fill:#630F0F;" d="M149.967,203.173c0,0,1.709,3.167,3.343,4.598c-0.905,1.074-2.691,0.846-2.691,0.846
					L149.967,203.173z"/>
				<path style="fill:#263238;" d="M149.794,195.206c0.087-0.129,0.105-0.3,0.034-0.451c-0.108-0.228-0.381-0.325-0.609-0.217
					c-2.281,1.083-2.589,3.17-2.601,3.258c-0.034,0.25,0.141,0.48,0.391,0.514c0.249,0.034,0.479-0.14,0.514-0.389l0,0
					c0.01-0.069,0.266-1.692,2.088-2.557C149.688,195.327,149.75,195.271,149.794,195.206z"/>
				<path style="fill:#7F3E3B;" d="M123.065,201.8c1.719,9.413,2.245,13.434,7.618,17.727c8.082,6.458,19.267,2.288,20.396-7.449
					c1.016-8.764-1.966-22.685-11.7-25.347C129.788,184.11,121.346,192.387,123.065,201.8z"/>
				<path style="fill:#263238;" d="M143.795,204.436c1.587,5.172,5.368,17.677-2.985,20.461c-6.534,2.178-26.992,3.92-29.347-8.067
					c-2.436-12.395,8.616-21.216,8.616-21.216s-8.756-7.182-3.146-15.004c7.231-10.084,24.543-4.382,29.682,2.743
					C151.61,190.278,143.795,204.436,143.795,204.436z"/>
				<path style="fill:#263238;" d="M127.961,226.617c-3.35,0-7.505-0.684-10.927-2.156c-4.646-2.001-7.358-5.093-7.842-8.941
					c-1.642-13.071,10.521-20.254,10.645-20.324l0.484,0.838c-0.117,0.068-11.729,6.94-10.168,19.365
					c0.554,4.408,4.256,6.878,7.264,8.173c5.938,2.557,13.609,2.543,15.471,1.178l0.572,0.781
					C132.491,226.24,130.448,226.617,127.961,226.617z"/>
				<path style="fill:#407BFF;" d="M116.314,193.738c-0.11,1.672-1.497,3.969,4.3,4.832c5.797,0.864,13.851,0.782,15.504-0.613
					c1.652-1.394,3.282-4.728-0.175-4.43C132.485,193.826,116.501,190.88,116.314,193.738z"/>
				<path style="fill:#7F3E3B;" d="M140.632,205.911c0.991,1.883,2.759,3.133,4.438,3.625c2.525,0.739,3.82-1.511,3.145-3.911
					c-0.607-2.16-2.652-5.148-5.199-4.834C140.507,201.1,139.499,203.758,140.632,205.911z"/>
				<polygon style="fill:#7F3E3B;" points="201.641,403.559 210.921,403.383 206.428,380.218 197.148,380.394 				"/>
				<path style="fill:#7F3E3B;" d="M208.6,393.473c2.455,9.245,11.477,19.032,11.477,19.032l-12.877-3.272l-5.628-7.997l0.985-2.117
					L208.6,393.473z"/>
				<path style="fill:#263238;" d="M199.455,397.77c-0.039,1.027,0.039,2.197,0.187,3.235c0.543,3.824,2.231,13.961,2.231,13.961
					l0.874,0.006c0,0-0.828-6.824-0.708-9.339c0.12-2.515,1.743,1.932,3.703,4.447c1.96,2.516,5.489,4.806,11.198,4.984
					c6.685,0.209,9.348-0.072,7.206-1.741c-2.142-1.669-6.697-2.758-6.697-2.758s-5.259-1.889-9.018-7.541
					c-2.438-3.665-6.523-6.316-8.296-7.177C199.599,395.942,199.486,396.954,199.455,397.77z"/>
				<polygon style="fill:#7F3E3B;" points="234.507,372.091 246.353,372.457 233.104,352.759 224.901,359.77 				"/>
				<path style="fill:#7F3E3B;" d="M237.32,363.727c8.606,4.009,22.391,3.22,22.391,3.22l-11.205,8.99l-9.609-0.712l-1.015-2.135
					L237.32,363.727z"/>
				<path style="fill:#263238;" d="M235.498,373.941c0.73,0.733,1.637,1.473,2.491,2.067c3.143,2.189,11.628,7.797,11.628,7.797
					l0.544-0.684c0,0-5.522-4.018-7.295-5.833c-1.772-1.815,2.495-0.049,5.552,0.13c3.058,0.18,6.918-1.029,10.575-5.398
					c4.281-5.115,5.72-7.402,3.172-6.859c-2.548,0.543-6.161,3.381-6.161,3.381s-4.635,2.844-11.106,1.934
					c-4.196-0.59-8.665,0.809-10.393,1.615C234.245,372.578,234.918,373.358,235.498,373.941z"/>
				<path style="fill:#263238;" d="M141.098,293.351c0,0,63.365-9.373,69.925,6.869c11.414,28.26,27.532,60.641,27.532,60.641
					l-7.783,6.438c0,0-27.627-25.575-37.456-53.967c-11.739,3.798-49.089,16.02-62.769,16.02c-14.611,0-20.578-12.457-15.301-33.142
					c0.47-1.844,2.151-3.122,4.054-3.112C128.498,293.143,141.098,293.351,141.098,293.351z"/>
				<path style="fill:#263238;" d="M147.172,301.602c0,0,52.005-1.566,52.444,16.859c0.726,30.469,9.313,74.129,9.313,74.129
					l-9.486,0.883c0,0-15.509-34.729-19.612-64.493c-18.525,1.202-35.604,0.372-49.284,0.372c-15.331,0-16.598-16.837-1.675-36.482
					C137.993,292.87,147.172,301.602,147.172,301.602z"/>
				<path style="fill:#FFFFFF;" d="M115.09,290.555l-1.105,3.474c-0.145,0.268,0.169,0.554,0.621,0.568l40.283,1.198
					c0.353,0.01,0.65-0.154,0.679-0.375l0.457-3.493c0.032-0.242-0.268-0.457-0.654-0.468l-39.635-1.179
					C115.445,290.271,115.184,290.382,115.09,290.555z"/>
				<g>
					<path style="fill:#263238;" d="M120.281,295.145l-1.062-0.032c-0.211-0.006-0.369-0.12-0.351-0.253l0.633-4.537
						c0.018-0.133,0.207-0.236,0.418-0.23l1.062,0.031c0.211,0.006,0.369,0.12,0.351,0.253l-0.633,4.537
						C120.681,295.048,120.493,295.151,120.281,295.145z"/>
					<path style="fill:#263238;" d="M151.894,296.085l-1.061-0.032c-0.211-0.006-0.369-0.12-0.351-0.253l0.633-4.537
						c0.019-0.133,0.207-0.236,0.418-0.23l1.062,0.031c0.211,0.006,0.369,0.12,0.351,0.253l-0.633,4.537
						C152.294,295.988,152.106,296.091,151.894,296.085z"/>
					<path style="fill:#263238;" d="M136.088,295.615l-1.061-0.032c-0.211-0.006-0.369-0.12-0.351-0.253l0.633-4.537
						c0.018-0.133,0.207-0.236,0.418-0.23l1.062,0.032c0.211,0.006,0.369,0.12,0.351,0.253l-0.633,4.537
						C136.487,295.518,136.299,295.621,136.088,295.615z"/>
				</g>
				<g>
					<path style="fill:#407BFF;" d="M184.325,251.609h25.299c0.808,0,1.39,0.775,1.164,1.551l-9.454,32.448
						c-0.151,0.517-0.625,0.873-1.164,0.873h-25.299c-0.808,0-1.39-0.775-1.164-1.551l9.454-32.448
						C183.312,251.964,183.786,251.609,184.325,251.609z"/>
					<polygon style="fill:#E0E0E0;" points="184.792,252.8 209.38,253.383 199.671,283.988 175.082,283.404 					"/>
					<polygon style="fill:#FFFFFF;" points="184.019,252.499 208.614,252.601 199.505,283.389 174.91,283.287 					"/>
				</g>
				<path style="fill:#7F3E3B;" d="M161.843,253.136c0.049,0.975,0.142,2.188,0.231,3.296c0.099,1.133,0.223,2.267,0.373,3.395
					c0.28,2.259,0.655,4.495,1.119,6.679c0.481,2.177,1.048,4.312,1.786,6.306c0.368,0.999,0.774,1.964,1.22,2.875
					c0.216,0.466,0.461,0.896,0.703,1.328l0.365,0.615c-0.031-0.041-0.074-0.043-0.04-0.008c0.069,0.157,0.775,0.609,1.593,0.932
					c0.838,0.34,1.839,0.625,2.881,0.862c2.097,0.482,4.379,0.796,6.687,1.033c4.619,0.45,9.444,0.674,14.172,0.771l0.477,4.792
					c-4.937,0.952-9.828,1.553-14.908,1.685c-2.539,0.057-5.107,0.012-7.796-0.32c-1.347-0.179-2.722-0.418-4.187-0.846
					c-1.463-0.462-3.042-0.99-4.784-2.469c-0.426-0.362-0.86-0.832-1.255-1.357l-0.644-0.9c-0.403-0.594-0.802-1.194-1.15-1.802
					c-0.728-1.212-1.345-2.452-1.887-3.701c-1.102-2.497-1.929-5.025-2.582-7.564c-0.662-2.536-1.139-5.083-1.488-7.635
					c-0.167-1.278-0.303-2.556-0.412-3.84c-0.114-1.309-0.181-2.518-0.196-3.968L161.843,253.136z"/>
				<path style="fill:#407BFF;" d="M158.553,238.389c6.297,5.929,4.78,21.381,4.78,21.381l-12.066,2.109
					c0,0-7.449-11.078-4.831-15.723C149.163,241.318,155.146,235.181,158.553,238.389z"/>
				<g>
					<path style="fill:#FFFFFF;" d="M163.33,261.13c-0.351,0-0.71-0.15-0.96-0.4c-0.061-0.06-0.12-0.13-0.17-0.21
						c-0.04-0.069-0.091-0.149-0.12-0.229c-0.03-0.08-0.061-0.17-0.08-0.261c-0.01-0.079-0.02-0.17-0.02-0.26
						c0-0.359,0.141-0.71,0.391-0.96c0.069-0.06,0.13-0.12,0.21-0.17c0.069-0.05,0.149-0.09,0.23-0.12
						c0.09-0.04,0.17-0.06,0.26-0.08c0.431-0.09,0.9,0.06,1.221,0.37c0.25,0.25,0.4,0.601,0.4,0.96c0,0.09-0.01,0.181-0.029,0.26
						c-0.021,0.091-0.04,0.181-0.08,0.261c-0.03,0.08-0.07,0.16-0.12,0.229c-0.05,0.08-0.11,0.15-0.17,0.21
						C164.04,260.979,163.689,261.13,163.33,261.13z"/>
					<path style="fill:#FFFFFF;" d="M152.37,261.85c-0.061-0.75,0.489-1.41,1.239-1.47l0,0c0.52-0.05,1.011,0.21,1.27,0.64l0,0
						c0.16-0.47,0.57-0.84,1.09-0.92l0,0c0.521-0.07,1.021,0.16,1.311,0.57l0,0c0.13-0.48,0.52-0.87,1.029-0.97l0,0
						c0.52-0.11,1.03,0.1,1.34,0.489l0,0c0.101-0.489,0.471-0.9,0.98-1.04v0.011c0.73-0.2,1.47,0.239,1.66,0.96l0,0
						c0.19,0.72-0.24,1.47-0.971,1.659l0,0l0,0l0,0c-0.529,0.141-1.079-0.06-1.409-0.47l0,0c-0.11,0.51-0.511,0.931-1.061,1.05l0,0
						c-0.54,0.101-1.08-0.13-1.38-0.56l0,0c-0.14,0.51-0.559,0.91-1.11,0.99l0,0c-0.55,0.08-1.079-0.19-1.35-0.63l0,0
						c-0.17,0.489-0.61,0.869-1.17,0.92l0,0c-0.04,0-0.07,0-0.11,0l0,0C153.03,263.08,152.439,262.55,152.37,261.85z"/>
					<path style="fill:#FFFFFF;" d="M151.27,263.24c-0.09,0-0.18-0.011-0.27-0.03c-0.09-0.02-0.17-0.05-0.25-0.08
						c-0.09-0.03-0.16-0.08-0.24-0.12c-0.07-0.05-0.14-0.11-0.2-0.17c-0.069-0.061-0.12-0.13-0.17-0.21
						c-0.05-0.07-0.09-0.15-0.13-0.23c-0.03-0.09-0.06-0.17-0.07-0.26c-0.02-0.08-0.029-0.17-0.029-0.26
						c0-0.09,0.01-0.18,0.029-0.271c0.011-0.08,0.04-0.17,0.07-0.25c0.04-0.08,0.08-0.159,0.13-0.239
						c0.05-0.07,0.101-0.141,0.17-0.2c0.061-0.06,0.13-0.12,0.2-0.17c0.08-0.05,0.15-0.09,0.24-0.12c0.08-0.04,0.16-0.061,0.25-0.08
						c0.439-0.09,0.91,0.05,1.22,0.37c0.07,0.06,0.12,0.13,0.17,0.2c0.05,0.08,0.09,0.159,0.13,0.239
						c0.03,0.08,0.061,0.17,0.08,0.25c0.01,0.091,0.021,0.181,0.021,0.271c0,0.09-0.011,0.18-0.021,0.26
						c-0.02,0.09-0.05,0.17-0.08,0.26c-0.04,0.08-0.08,0.16-0.13,0.23c-0.05,0.07-0.1,0.149-0.17,0.21
						C151.97,263.09,151.62,263.24,151.27,263.24z"/>
				</g>
				<path style="fill:#7F3E3B;" d="M204.2,276.218l-4.175-0.282c-1.042-0.07-2.077,0.207-2.944,0.79l-7.672,5.153l-0.058,3.248
					c2.458,2.859,7.902,0.299,7.902,0.299l5.049-0.162c0.825-0.026,1.55-0.552,1.833-1.327l1.827-5.012
					C206.423,277.661,205.542,276.309,204.2,276.218z"/>
			</g>
		</g>
		<g>
			<g>
				<g>
					<path style="fill:#407BFF;" d="M117.588,418.406h1.133c0.442,0,0.821-0.388,0.897-0.919l6.96-48.439h-5.285l-4.609,48.118
						C116.62,417.826,117.043,418.406,117.588,418.406z"/>
					<path style="opacity:0.3;" d="M117.588,418.406h1.133c0.442,0,0.821-0.388,0.897-0.919l6.96-48.439h-5.285l-4.609,48.118
						C116.62,417.826,117.043,418.406,117.588,418.406z"/>
				</g>
				<g>
					<path style="fill:#407BFF;" d="M103.087,418.406h1.133c0.442,0,0.82-0.388,0.897-0.919l6.96-48.439h-5.285l-4.609,48.118
						C102.12,417.826,102.543,418.406,103.087,418.406z"/>
					<path style="opacity:0.3;" d="M103.087,418.406h1.133c0.442,0,0.82-0.388,0.897-0.919l6.96-48.439h-5.285l-4.609,48.118
						C102.12,417.826,102.543,418.406,103.087,418.406z"/>
				</g>
				<g>
					<path style="fill:#407BFF;" d="M183.885,418.406h-1.133c-0.442,0-0.821-0.388-0.897-0.919l-6.96-48.439h5.285l4.609,48.118
						C184.853,417.826,184.43,418.406,183.885,418.406z"/>
					<path style="opacity:0.3;" d="M183.885,418.406h-1.133c-0.442,0-0.821-0.388-0.897-0.919l-6.96-48.439h5.285l4.609,48.118
						C184.853,417.826,184.43,418.406,183.885,418.406z"/>
				</g>
				<g>
					<path style="fill:#407BFF;" d="M198.386,418.406h-1.133c-0.442,0-0.82-0.388-0.897-0.919l-6.96-48.439h5.285l4.609,48.118
						C199.354,417.826,198.931,418.406,198.386,418.406z"/>
					<path style="opacity:0.3;" d="M198.386,418.406h-1.133c-0.442,0-0.82-0.388-0.897-0.919l-6.96-48.439h5.285l4.609,48.118
						C199.354,417.826,198.931,418.406,198.386,418.406z"/>
				</g>
			</g>
			<g>
				<path style="fill:#407BFF;" d="M217.178,311.628h-35.6c-6.316-21.934-29.043-39.239-52.317-39.239c-0.001,0-0.002,0-0.003,0
					h-11.56c-24.362,0-40.084,18.956-35.116,42.339c0.912,4.293,2.463,8.434,4.53,12.338l5.614,34.029
					c0.725,4.392,4.229,7.952,7.826,7.952l107.152,0c3.598,0,7.102-3.56,7.826-7.952l6.85-41.516
					C223.106,315.188,220.777,311.628,217.178,311.628z"/>
				<path style="opacity:0.5;fill:#FFFFFF;" d="M217.178,311.628h-35.6c-6.316-21.934-29.043-39.239-52.317-39.239
					c-0.001,0-0.002,0-0.003,0h-11.56c-24.362,0-40.084,18.956-35.116,42.339c0.912,4.293,2.463,8.434,4.53,12.338l5.614,34.029
					c0.725,4.392,4.229,7.952,7.826,7.952l107.152,0c3.598,0,7.102-3.56,7.826-7.952l6.85-41.516
					C223.106,315.188,220.777,311.628,217.178,311.628z"/>
			</g>
		</g>
	</g>
</g>
<g id="Bubble_Speech">
	<g>
		<g>
			<rect x="204.365" y="152.146" style="fill:#407BFF;" width="8.167" height="1"/>
			<path style="fill:#407BFF;" d="M174.322,163.931h-1v-4.92c0-3.785,3.08-6.864,6.865-6.864h18.23v1h-18.23
				c-3.234,0-5.865,2.631-5.865,5.864V163.931z"/>
			<path style="fill:#407BFF;" d="M271.361,198.13h-91.173c-1.858,0-3.365-1.507-3.365-3.365v-35.754
				c0-1.858,1.507-3.365,3.365-3.365h91.173c1.858,0,3.365,1.507,3.365,3.365v35.754C274.726,196.623,273.219,198.13,271.361,198.13
				z"/>
			<path style="fill:#FFFFFF;" d="M267.049,179.149h-82.55c-1.249,0-2.261-1.012-2.261-2.261l0,0c0-1.249,1.012-2.261,2.261-2.261
				h82.55c1.249,0,2.261,1.012,2.261,2.261l0,0C269.31,178.137,268.298,179.149,267.049,179.149z"/>
			<path style="fill:#FFFFFF;" d="M249.383,188.538h-64.884c-1.249,0-2.261-1.012-2.261-2.261l0,0c0-1.249,1.012-2.261,2.261-2.261
				h64.884c1.249,0,2.261,1.012,2.261,2.261l0,0C251.643,187.526,250.631,188.538,249.383,188.538z"/>
			<path style="fill:#FFFFFF;" d="M212.337,169.759h-27.839c-1.249,0-2.261-1.012-2.261-2.261l0,0c0-1.249,1.012-2.261,2.261-2.261
				h27.839c1.249,0,2.261,1.012,2.261,2.261l0,0C214.598,168.747,213.586,169.759,212.337,169.759z"/>
			<path style="fill:#FFFFFF;" d="M249.239,169.759h-27.839c-1.249,0-2.261-1.012-2.261-2.261l0,0c0-1.249,1.012-2.261,2.261-2.261
				h27.839c1.249,0,2.261,1.012,2.261,2.261l0,0C251.5,168.747,250.488,169.759,249.239,169.759z"/>
			<path style="fill:#407BFF;" d="M182.238,195.417v10.832c0,2.085,2.395,3.26,4.044,1.984l16.6-12.848L182.238,195.417z"/>
		</g>
		<g>
			<g>
				<path style="fill:#FFFFFF;" d="M322.813,102.003H231.64c-1.859,0-3.365,1.507-3.365,3.365v35.754
					c0,1.858,1.507,3.365,3.365,3.365h72.025l13.054,10.103c1.648,1.276,4.044,0.101,4.044-1.984v-8.12h2.051
					c1.858,0,3.365-1.507,3.365-3.365v-35.753C326.178,103.51,324.671,102.003,322.813,102.003z"/>
				<path style="fill:#407BFF;" d="M318.25,155.618c-0.651,0-1.297-0.214-1.837-0.633l-12.92-9.998H231.64
					c-2.131,0-3.865-1.734-3.865-3.865v-35.754c0-2.131,1.734-3.865,3.865-3.865h91.173c2.131,0,3.865,1.734,3.865,3.865v35.754
					c0,2.131-1.734,3.865-3.865,3.865h-1.55v7.619c0,1.157-0.646,2.191-1.684,2.701C319.154,155.516,318.701,155.618,318.25,155.618
					z M231.64,102.503c-1.58,0-2.865,1.285-2.865,2.865v35.754c0,1.58,1.285,2.865,2.865,2.865h72.195l13.189,10.207
					c0.619,0.48,1.409,0.563,2.114,0.216c0.704-0.346,1.124-1.02,1.124-1.804v-8.619h2.55c1.58,0,2.865-1.285,2.865-2.865v-35.754
					c0-1.58-1.285-2.865-2.865-2.865H231.64z"/>
			</g>
			<path style="fill:#407BFF;" d="M275.278,125.506h43.224c1.249,0,2.261-1.012,2.261-2.261l0,0c0-1.249-1.012-2.261-2.261-2.261
				h-43.224c-1.249,0-2.261,1.012-2.261,2.261l0,0C273.017,124.494,274.029,125.506,275.278,125.506z"/>
			<path style="fill:#407BFF;" d="M245.101,125.506h21.4c1.249,0,2.261-1.012,2.261-2.261l0,0c0-1.249-1.012-2.261-2.261-2.261
				h-21.4c-1.249,0-2.261,1.012-2.261,2.261l0,0C242.84,124.494,243.853,125.506,245.101,125.506z"/>
			<path style="fill:#407BFF;" d="M253.618,134.896h64.884c1.249,0,2.261-1.012,2.261-2.261v0c0-1.249-1.012-2.261-2.261-2.261
				h-64.884c-1.249,0-2.261,1.012-2.261,2.261v0C251.357,133.883,252.369,134.896,253.618,134.896z"/>
			<path style="fill:#407BFF;" d="M235.951,116.116h82.55c1.249,0,2.261-1.012,2.261-2.261l0,0c0-1.249-1.012-2.261-2.261-2.261
				h-82.55c-1.249,0-2.261,1.012-2.261,2.261l0,0C233.69,115.104,234.703,116.116,235.951,116.116z"/>
		</g>
	</g>
</g>
</svg>
