<svg width="24" height="25" viewBox="0 0 24 25" fill="none" xmlns="http://www.w3.org/2000/svg">
    <rect width="24" height="25" fill="#E5E5E5"/>
    <g clip-path="url(#clip0_0_1)">
        <rect width="414" height="896" transform="translate(-158 -719)" fill="white"/>
        <path d="M-158 -248.414C-128.61 -277.446 -110.308 -292.638 -65.5674 -312.536C-41.1535 -323.755 -18.3074 -329.885 57.4565 -340.212C105.252 -343.091 129.283 -350.748 163.055 -384.25C201.7 -417.871 221.042 -432.922 256 -460.518V176.482H-158V-248.414Z" fill="#F2F6F9"/>
        <path d="M18.1389 12.5C18.1389 14.0537 17.5272 15.5438 16.4385 16.6425C15.3497 17.7411 13.8731 18.3583 12.3333 18.3583C10.7936 18.3583 9.31693 17.7411 8.22818 16.6425C7.13943 15.5438 6.52777 14.0537 6.52777 12.5C6.52777 10.9463 7.13943 9.45618 8.22818 8.35753C9.31693 7.25888 10.7936 6.64166 12.3333 6.64166C13.8731 6.64166 15.3497 7.25888 16.4385 8.35753C17.5272 9.45618 18.1389 10.9463 18.1389 12.5Z" fill="black"/>
        <path d="M12.3333 22.9062C18.0287 22.9062 22.6458 18.2472 22.6458 12.5C22.6458 6.75279 18.0287 2.09375 12.3333 2.09375C6.63788 2.09375 2.02081 6.75279 2.02081 12.5C2.02081 18.2472 6.63788 22.9062 12.3333 22.9062Z" stroke="black" stroke-width="2.66667" stroke-linecap="round" stroke-linejoin="round"/>
    </g>
    <defs>
        <clipPath id="clip0_0_1">
            <rect width="414" height="896" fill="white" transform="translate(-158 -719)"/>
        </clipPath>
    </defs>
</svg>
